# Blender 5.1.1
# www.blender.org
mtllib cylinder.mtl
o Cylinder
v -0.003764 3.472585 -0.875441
v 0.165795 3.472585 -0.858741
v 0.328838 3.472585 -0.809282
v 0.479099 3.472585 -0.728966
v 0.610804 3.472585 -0.620878
v 0.718892 3.472585 -0.489173
v 0.799208 3.472585 -0.338912
v 0.848667 3.472585 -0.175869
v 0.865367 3.472585 -0.006310
v 0.848667 3.472585 0.163249
v 0.799208 3.472585 0.326292
v 0.718892 3.472585 0.476554
v 0.610804 3.472585 0.608259
v 0.479099 3.472585 0.716346
v 0.328838 3.472585 0.796663
v 0.165795 3.472585 0.846121
v -0.003764 3.472585 0.862821
v -0.173323 3.472585 0.846121
v -0.336367 3.472585 0.796663
v -0.486628 3.472585 0.716346
v -0.618333 3.472585 0.608259
v -0.726421 3.472585 0.476554
v -0.806737 3.472585 0.326292
v -0.856195 3.472585 0.163249
v -0.872895 3.472585 -0.006310
v -0.856195 3.472585 -0.175869
v -0.806737 3.472585 -0.338912
v -0.726421 3.472585 -0.489173
v -0.618333 3.472585 -0.620878
v -0.486628 3.472585 -0.728966
v -0.336367 3.472585 -0.809282
v -0.173323 3.472585 -0.858741
v -0.003764 -3.261740 -0.698822
v -0.003764 -2.919620 -1.006310
v -0.003764 -2.577499 -1.006310
v -0.003764 -2.235379 -1.006310
v -0.003764 -1.893259 -1.006310
v -0.003764 -1.551139 -1.006310
v -0.003764 -1.209019 -1.006310
v -0.003764 -0.866898 -1.006310
v -0.003764 -0.524778 -1.006310
v -0.003764 -0.182658 -1.006310
v -0.003764 0.159462 -1.006310
v -0.003764 0.501582 -1.006310
v -0.003764 0.843703 -1.006310
v -0.003764 1.185823 -1.006310
v -0.003764 1.527943 -1.006310
v -0.003764 1.870063 -1.006310
v -0.003764 2.212183 -1.006310
v -0.003764 2.554304 -1.006310
v -0.003764 2.896424 -1.006310
v -0.003764 3.238544 -1.006310
v 0.191326 3.238544 -0.987095
v 0.191326 2.896424 -0.987095
v 0.191326 2.554304 -0.987095
v 0.191326 2.212184 -0.987095
v 0.191326 1.870064 -0.987095
v 0.191326 1.527943 -0.987095
v 0.191326 1.185823 -0.987095
v 0.191326 0.843703 -0.987095
v 0.191326 0.501583 -0.987095
v 0.191326 0.159462 -0.987095
v 0.191326 -0.182658 -0.987095
v 0.191326 -0.524778 -0.987095
v 0.191326 -0.866898 -0.987095
v 0.191326 -1.209018 -0.987095
v 0.191326 -1.551139 -0.987095
v 0.191326 -1.893259 -0.987095
v 0.191326 -2.235379 -0.987095
v 0.191326 -2.577499 -0.987095
v 0.191326 -2.919620 -0.987095
v 0.131338 -3.261740 -0.685516
v 0.378919 3.238544 -0.930189
v 0.378919 2.896424 -0.930189
v 0.378919 2.554304 -0.930189
v 0.378919 2.212184 -0.930189
v 0.378919 1.870064 -0.930189
v 0.378919 1.527943 -0.930189
v 0.378919 1.185823 -0.930189
v 0.378919 0.843703 -0.930189
v 0.378919 0.501583 -0.930189
v 0.378919 0.159462 -0.930189
v 0.378919 -0.182658 -0.930189
v 0.378919 -0.524778 -0.930189
v 0.378919 -0.866898 -0.930189
v 0.378919 -1.209018 -0.930189
v 0.378919 -1.551139 -0.930189
v 0.378919 -1.893259 -0.930189
v 0.378919 -2.235379 -0.930189
v 0.378919 -2.577499 -0.930189
v 0.378919 -2.919620 -0.930189
v 0.261249 -3.261740 -0.646108
v 0.551806 3.238544 -0.837779
v 0.551806 2.896424 -0.837779
v 0.551806 2.554304 -0.837779
v 0.551806 2.212184 -0.837779
v 0.551806 1.870064 -0.837779
v 0.551806 1.527943 -0.837779
v 0.551806 1.185823 -0.837779
v 0.551806 0.843703 -0.837779
v 0.551806 0.501583 -0.837779
v 0.551806 0.159462 -0.837779
v 0.551806 -0.182658 -0.837779
v 0.551806 -0.524778 -0.837779
v 0.551806 -0.866898 -0.837779
v 0.551806 -1.209018 -0.837779
v 0.551806 -1.551139 -0.837779
v 0.551806 -1.893259 -0.837779
v 0.551806 -2.235379 -0.837779
v 0.551806 -2.577499 -0.837779
v 0.551806 -2.919620 -0.837779
v 0.380975 -3.261740 -0.582113
v 0.703342 3.238544 -0.713416
v 0.703342 2.896424 -0.713416
v 0.703342 2.554304 -0.713416
v 0.703342 2.212184 -0.713416
v 0.703342 1.870064 -0.713416
v 0.703342 1.527943 -0.713416
v 0.703342 1.185823 -0.713416
v 0.703342 0.843703 -0.713416
v 0.703342 0.501583 -0.713416
v 0.703342 0.159462 -0.713416
v 0.703342 -0.182658 -0.713416
v 0.703342 -0.524778 -0.713416
v 0.703342 -0.866898 -0.713416
v 0.703342 -1.209018 -0.713416
v 0.703342 -1.551139 -0.713416
v 0.703342 -1.893259 -0.713416
v 0.703342 -2.235379 -0.713416
v 0.703342 -2.577499 -0.713416
v 0.703342 -2.919620 -0.713416
v 0.485916 -3.261740 -0.495990
v 0.827705 3.238544 -0.561880
v 0.827705 2.896424 -0.561880
v 0.827705 2.554304 -0.561880
v 0.827705 2.212184 -0.561880
v 0.827705 1.870064 -0.561880
v 0.827705 1.527943 -0.561880
v 0.827705 1.185823 -0.561880
v 0.827705 0.843703 -0.561880
v 0.827705 0.501583 -0.561880
v 0.827705 0.159462 -0.561880
v 0.827705 -0.182658 -0.561880
v 0.827705 -0.524778 -0.561880
v 0.827705 -0.866898 -0.561880
v 0.827705 -1.209018 -0.561880
v 0.827705 -1.551139 -0.561880
v 0.827705 -1.893259 -0.561880
v 0.827705 -2.235379 -0.561880
v 0.827705 -2.577499 -0.561880
v 0.827705 -2.919620 -0.561880
v 0.572039 -3.261740 -0.391049
v 0.920115 3.238544 -0.388993
v 0.920115 2.896424 -0.388993
v 0.920115 2.554304 -0.388993
v 0.920115 2.212184 -0.388993
v 0.920115 1.870064 -0.388993
v 0.920115 1.527943 -0.388993
v 0.920115 1.185823 -0.388993
v 0.920115 0.843703 -0.388993
v 0.920115 0.501583 -0.388993
v 0.920115 0.159462 -0.388993
v 0.920115 -0.182658 -0.388993
v 0.920115 -0.524778 -0.388993
v 0.920115 -0.866898 -0.388993
v 0.920115 -1.209018 -0.388993
v 0.920115 -1.551139 -0.388993
v 0.920115 -1.893259 -0.388993
v 0.920115 -2.235379 -0.388993
v 0.920115 -2.577499 -0.388993
v 0.920115 -2.919620 -0.388993
v 0.636034 -3.261740 -0.271323
v 0.977021 3.238544 -0.201400
v 0.977021 2.896424 -0.201400
v 0.977021 2.554304 -0.201400
v 0.977021 2.212184 -0.201400
v 0.977021 1.870064 -0.201400
v 0.977021 1.527943 -0.201400
v 0.977021 1.185823 -0.201400
v 0.977021 0.843703 -0.201400
v 0.977021 0.501583 -0.201400
v 0.977021 0.159462 -0.201400
v 0.977021 -0.182658 -0.201400
v 0.977021 -0.524778 -0.201400
v 0.977021 -0.866898 -0.201400
v 0.977021 -1.209018 -0.201400
v 0.977021 -1.551139 -0.201400
v 0.977021 -1.893259 -0.201400
v 0.977021 -2.235379 -0.201400
v 0.977021 -2.577499 -0.201400
v 0.977021 -2.919620 -0.201400
v 0.675442 -3.261740 -0.141412
v 0.996236 3.238544 -0.006310
v 0.996236 2.896424 -0.006310
v 0.996236 2.554304 -0.006310
v 0.996236 2.212184 -0.006310
v 0.996236 1.870064 -0.006310
v 0.996236 1.527943 -0.006310
v 0.996236 1.185823 -0.006310
v 0.996236 0.843703 -0.006310
v 0.996236 0.501583 -0.006310
v 0.996236 0.159462 -0.006310
v 0.996236 -0.182658 -0.006310
v 0.996236 -0.524778 -0.006310
v 0.996236 -0.866898 -0.006310
v 0.996236 -1.209018 -0.006310
v 0.996236 -1.551139 -0.006310
v 0.996236 -1.893259 -0.006310
v 0.996236 -2.235379 -0.006310
v 0.996236 -2.577499 -0.006310
v 0.996236 -2.919620 -0.006310
v 0.688748 -3.261740 -0.006310
v 0.977021 3.238544 0.188781
v 0.977021 2.896424 0.188781
v 0.977021 2.554304 0.188781
v 0.977021 2.212184 0.188781
v 0.977021 1.870064 0.188781
v 0.977021 1.527943 0.188781
v 0.977021 1.185823 0.188781
v 0.977021 0.843703 0.188781
v 0.977021 0.501583 0.188781
v 0.977021 0.159462 0.188781
v 0.977021 -0.182658 0.188781
v 0.977021 -0.524778 0.188781
v 0.977021 -0.866898 0.188781
v 0.977021 -1.209018 0.188781
v 0.977021 -1.551139 0.188781
v 0.977021 -1.893259 0.188781
v 0.977021 -2.235379 0.188781
v 0.977021 -2.577499 0.188781
v 0.977021 -2.919620 0.188781
v 0.675442 -3.261740 0.128793
v 0.920115 3.238544 0.376374
v 0.920115 2.896424 0.376374
v 0.920115 2.554304 0.376374
v 0.920115 2.212184 0.376374
v 0.920115 1.870064 0.376374
v 0.920115 1.527943 0.376374
v 0.920115 1.185823 0.376374
v 0.920115 0.843703 0.376374
v 0.920115 0.501583 0.376374
v 0.920115 0.159462 0.376374
v 0.920115 -0.182658 0.376374
v 0.920115 -0.524778 0.376374
v 0.920115 -0.866898 0.376374
v 0.920115 -1.209018 0.376374
v 0.920115 -1.551139 0.376374
v 0.920115 -1.893259 0.376374
v 0.920115 -2.235379 0.376374
v 0.920115 -2.577499 0.376374
v 0.920115 -2.919620 0.376374
v 0.636034 -3.261740 0.258704
v 0.827705 3.238544 0.549261
v 0.827705 2.896424 0.549261
v 0.827705 2.554304 0.549261
v 0.827705 2.212184 0.549261
v 0.827705 1.870064 0.549261
v 0.827705 1.527943 0.549261
v 0.827705 1.185823 0.549261
v 0.827705 0.843703 0.549261
v 0.827705 0.501583 0.549261
v 0.827705 0.159462 0.549261
v 0.827705 -0.182658 0.549261
v 0.827705 -0.524778 0.549261
v 0.827705 -0.866898 0.549261
v 0.827705 -1.209018 0.549261
v 0.827705 -1.551139 0.549261
v 0.827705 -1.893259 0.549261
v 0.827705 -2.235379 0.549261
v 0.827705 -2.577499 0.549261
v 0.827705 -2.919620 0.549261
v 0.572039 -3.261740 0.378430
v 0.703342 3.238544 0.700797
v 0.703342 2.896424 0.700797
v 0.703342 2.554304 0.700797
v 0.703342 2.212184 0.700797
v 0.703342 1.870064 0.700797
v 0.703342 1.527943 0.700797
v 0.703342 1.185823 0.700797
v 0.703342 0.843703 0.700797
v 0.703342 0.501583 0.700797
v 0.703342 0.159462 0.700797
v 0.703342 -0.182658 0.700797
v 0.703342 -0.524778 0.700797
v 0.703342 -0.866898 0.700797
v 0.703342 -1.209018 0.700797
v 0.703342 -1.551139 0.700797
v 0.703342 -1.893259 0.700797
v 0.703342 -2.235379 0.700797
v 0.703342 -2.577499 0.700797
v 0.703342 -2.919620 0.700797
v 0.485916 -3.261740 0.483371
v 0.551806 3.238544 0.825160
v 0.551806 2.896424 0.825160
v 0.551806 2.554304 0.825160
v 0.551806 2.212184 0.825160
v 0.551806 1.870064 0.825160
v 0.551806 1.527943 0.825160
v 0.551806 1.185823 0.825160
v 0.551806 0.843703 0.825160
v 0.551806 0.501583 0.825160
v 0.551806 0.159462 0.825160
v 0.551806 -0.182658 0.825160
v 0.551806 -0.524778 0.825160
v 0.551806 -0.866898 0.825160
v 0.551806 -1.209018 0.825160
v 0.551806 -1.551139 0.825160
v 0.551806 -1.893259 0.825160
v 0.551806 -2.235379 0.825160
v 0.551806 -2.577499 0.825160
v 0.551806 -2.919620 0.825160
v 0.380975 -3.261740 0.569494
v 0.378919 3.238544 0.917570
v 0.378919 2.896424 0.917570
v 0.378919 2.554304 0.917570
v 0.378919 2.212184 0.917570
v 0.378919 1.870064 0.917570
v 0.378919 1.527943 0.917570
v 0.378919 1.185823 0.917570
v 0.378919 0.843703 0.917570
v 0.378919 0.501583 0.917570
v 0.378919 0.159462 0.917570
v 0.378919 -0.182658 0.917570
v 0.378919 -0.524778 0.917570
v 0.378919 -0.866898 0.917570
v 0.378919 -1.209018 0.917570
v 0.378919 -1.551139 0.917570
v 0.378919 -1.893259 0.917570
v 0.378919 -2.235379 0.917570
v 0.378919 -2.577499 0.917570
v 0.378919 -2.919620 0.917570
v 0.261249 -3.261740 0.633489
v 0.191326 3.238544 0.974476
v 0.191326 2.896424 0.974476
v 0.191326 2.554304 0.974476
v 0.191326 2.212184 0.974476
v 0.191326 1.870064 0.974476
v 0.191326 1.527943 0.974476
v 0.191326 1.185823 0.974476
v 0.191326 0.843703 0.974476
v 0.191326 0.501583 0.974476
v 0.191326 0.159462 0.974476
v 0.191326 -0.182658 0.974476
v 0.191326 -0.524778 0.974476
v 0.191326 -0.866898 0.974476
v 0.191326 -1.209018 0.974476
v 0.191326 -1.551139 0.974476
v 0.191326 -1.893259 0.974476
v 0.191326 -2.235379 0.974476
v 0.191326 -2.577499 0.974476
v 0.191326 -2.919620 0.974476
v 0.131338 -3.261740 0.672897
v -0.003764 3.238544 0.993690
v -0.003764 2.896424 0.993690
v -0.003764 2.554304 0.993690
v -0.003764 2.212184 0.993690
v -0.003764 1.870064 0.993690
v -0.003764 1.527943 0.993690
v -0.003764 1.185823 0.993690
v -0.003764 0.843703 0.993690
v -0.003764 0.501583 0.993690
v -0.003764 0.159462 0.993690
v -0.003764 -0.182658 0.993690
v -0.003764 -0.524778 0.993690
v -0.003764 -0.866898 0.993690
v -0.003764 -1.209018 0.993690
v -0.003764 -1.551139 0.993690
v -0.003764 -1.893259 0.993690
v -0.003764 -2.235379 0.993690
v -0.003764 -2.577499 0.993690
v -0.003764 -2.919620 0.993690
v -0.003764 -3.261740 0.686203
v -0.198855 3.238544 0.974476
v -0.198855 2.896424 0.974476
v -0.198855 2.554304 0.974476
v -0.198855 2.212184 0.974476
v -0.198855 1.870064 0.974476
v -0.198855 1.527943 0.974476
v -0.198855 1.185823 0.974476
v -0.198855 0.843703 0.974476
v -0.198855 0.501583 0.974476
v -0.198855 0.159462 0.974476
v -0.198855 -0.182658 0.974476
v -0.198855 -0.524778 0.974476
v -0.198855 -0.866898 0.974476
v -0.198855 -1.209018 0.974476
v -0.198855 -1.551139 0.974476
v -0.198855 -1.893259 0.974476
v -0.198855 -2.235379 0.974476
v -0.198855 -2.577499 0.974476
v -0.198855 -2.919620 0.974476
v -0.138867 -3.261740 0.672897
v -0.386448 3.238544 0.917570
v -0.386448 2.896424 0.917570
v -0.386448 2.554304 0.917570
v -0.386448 2.212184 0.917570
v -0.386448 1.870064 0.917570
v -0.386448 1.527943 0.917570
v -0.386448 1.185823 0.917570
v -0.386448 0.843703 0.917570
v -0.386448 0.501583 0.917570
v -0.386448 0.159462 0.917570
v -0.386448 -0.182658 0.917570
v -0.386448 -0.524778 0.917570
v -0.386448 -0.866898 0.917570
v -0.386448 -1.209018 0.917570
v -0.386448 -1.551139 0.917570
v -0.386448 -1.893259 0.917570
v -0.386448 -2.235379 0.917570
v -0.386448 -2.577499 0.917570
v -0.386448 -2.919620 0.917570
v -0.268778 -3.261740 0.633489
v -0.559335 3.238544 0.825160
v -0.559335 2.896424 0.825160
v -0.559335 2.554304 0.825160
v -0.559335 2.212184 0.825160
v -0.559335 1.870064 0.825160
v -0.559335 1.527943 0.825160
v -0.559335 1.185823 0.825160
v -0.559335 0.843703 0.825160
v -0.559335 0.501583 0.825160
v -0.559335 0.159462 0.825160
v -0.559335 -0.182658 0.825160
v -0.559335 -0.524778 0.825160
v -0.559335 -0.866898 0.825160
v -0.559335 -1.209018 0.825160
v -0.559335 -1.551139 0.825160
v -0.559335 -1.893259 0.825160
v -0.559335 -2.235379 0.825160
v -0.559335 -2.577499 0.825160
v -0.559335 -2.919620 0.825160
v -0.388504 -3.261740 0.569494
v -0.710871 3.238544 0.700797
v -0.710871 2.896424 0.700797
v -0.710871 2.554304 0.700797
v -0.710871 2.212184 0.700797
v -0.710871 1.870064 0.700797
v -0.710871 1.527943 0.700797
v -0.710871 1.185823 0.700797
v -0.710871 0.843703 0.700797
v -0.710871 0.501583 0.700797
v -0.710871 0.159462 0.700797
v -0.710871 -0.182658 0.700797
v -0.710871 -0.524778 0.700797
v -0.710871 -0.866898 0.700797
v -0.710871 -1.209018 0.700797
v -0.710871 -1.551139 0.700797
v -0.710871 -1.893259 0.700797
v -0.710871 -2.235379 0.700797
v -0.710871 -2.577499 0.700797
v -0.710871 -2.919620 0.700797
v -0.493445 -3.261740 0.483371
v -0.835234 3.238544 0.549261
v -0.835234 2.896424 0.549261
v -0.835234 2.554304 0.549261
v -0.835234 2.212184 0.549261
v -0.835234 1.870064 0.549261
v -0.835234 1.527943 0.549261
v -0.835234 1.185823 0.549261
v -0.835234 0.843703 0.549261
v -0.835234 0.501583 0.549261
v -0.835234 0.159462 0.549261
v -0.835234 -0.182658 0.549261
v -0.835234 -0.524778 0.549261
v -0.835234 -0.866898 0.549261
v -0.835234 -1.209018 0.549261
v -0.835234 -1.551139 0.549261
v -0.835234 -1.893259 0.549261
v -0.835234 -2.235379 0.549261
v -0.835234 -2.577499 0.549261
v -0.835234 -2.919620 0.549261
v -0.579568 -3.261740 0.378430
v -0.927644 3.238544 0.376374
v -0.927644 2.896424 0.376374
v -0.927644 2.554304 0.376374
v -0.927644 2.212184 0.376374
v -0.927644 1.870064 0.376374
v -0.927644 1.527943 0.376374
v -0.927644 1.185823 0.376374
v -0.927644 0.843703 0.376374
v -0.927644 0.501583 0.376374
v -0.927644 0.159462 0.376374
v -0.927644 -0.182658 0.376374
v -0.927644 -0.524778 0.376374
v -0.927644 -0.866898 0.376374
v -0.927644 -1.209018 0.376374
v -0.927644 -1.551139 0.376374
v -0.927644 -1.893259 0.376374
v -0.927644 -2.235379 0.376374
v -0.927644 -2.577499 0.376374
v -0.927644 -2.919620 0.376374
v -0.643563 -3.261740 0.258704
v -0.984550 3.238544 0.188781
v -0.984550 2.896424 0.188781
v -0.984550 2.554304 0.188781
v -0.984550 2.212184 0.188781
v -0.984550 1.870064 0.188781
v -0.984550 1.527943 0.188781
v -0.984550 1.185823 0.188781
v -0.984550 0.843703 0.188781
v -0.984550 0.501583 0.188781
v -0.984550 0.159462 0.188781
v -0.984550 -0.182658 0.188781
v -0.984550 -0.524778 0.188781
v -0.984550 -0.866898 0.188781
v -0.984550 -1.209018 0.188781
v -0.984550 -1.551139 0.188781
v -0.984550 -1.893259 0.188781
v -0.984550 -2.235379 0.188781
v -0.984550 -2.577499 0.188781
v -0.984550 -2.919620 0.188781
v -0.682971 -3.261740 0.128793
v -1.003764 3.238544 -0.006310
v -1.003764 2.896424 -0.006310
v -1.003764 2.554304 -0.006310
v -1.003764 2.212184 -0.006310
v -1.003764 1.870064 -0.006310
v -1.003764 1.527943 -0.006310
v -1.003764 1.185823 -0.006310
v -1.003764 0.843703 -0.006310
v -1.003764 0.501583 -0.006310
v -1.003764 0.159462 -0.006310
v -1.003764 -0.182658 -0.006310
v -1.003764 -0.524778 -0.006310
v -1.003764 -0.866898 -0.006310
v -1.003764 -1.209018 -0.006310
v -1.003764 -1.551139 -0.006310
v -1.003764 -1.893259 -0.006310
v -1.003764 -2.235379 -0.006310
v -1.003764 -2.577499 -0.006310
v -1.003764 -2.919620 -0.006310
v -0.696277 -3.261740 -0.006310
v -0.984550 3.238544 -0.201400
v -0.984550 2.896424 -0.201400
v -0.984550 2.554304 -0.201400
v -0.984550 2.212184 -0.201400
v -0.984550 1.870064 -0.201400
v -0.984550 1.527943 -0.201400
v -0.984550 1.185823 -0.201400
v -0.984550 0.843703 -0.201400
v -0.984550 0.501583 -0.201400
v -0.984550 0.159462 -0.201400
v -0.984550 -0.182658 -0.201400
v -0.984550 -0.524778 -0.201400
v -0.984550 -0.866898 -0.201400
v -0.984550 -1.209018 -0.201400
v -0.984550 -1.551139 -0.201400
v -0.984550 -1.893259 -0.201400
v -0.984550 -2.235379 -0.201400
v -0.984550 -2.577499 -0.201400
v -0.984550 -2.919620 -0.201400
v -0.682971 -3.261740 -0.141412
v -0.927644 3.238544 -0.388993
v -0.927644 2.896424 -0.388993
v -0.927644 2.554304 -0.388993
v -0.927644 2.212184 -0.388993
v -0.927644 1.870064 -0.388993
v -0.927644 1.527943 -0.388993
v -0.927644 1.185823 -0.388993
v -0.927644 0.843703 -0.388993
v -0.927644 0.501583 -0.388993
v -0.927644 0.159462 -0.388993
v -0.927644 -0.182658 -0.388993
v -0.927644 -0.524778 -0.388993
v -0.927644 -0.866898 -0.388993
v -0.927644 -1.209018 -0.388993
v -0.927644 -1.551139 -0.388993
v -0.927644 -1.893259 -0.388993
v -0.927644 -2.235379 -0.388993
v -0.927644 -2.577499 -0.388993
v -0.927644 -2.919620 -0.388993
v -0.643563 -3.261740 -0.271323
v -0.835234 3.238544 -0.561880
v -0.835234 2.896424 -0.561880
v -0.835234 2.554304 -0.561880
v -0.835234 2.212184 -0.561880
v -0.835234 1.870064 -0.561880
v -0.835234 1.527943 -0.561880
v -0.835234 1.185823 -0.561880
v -0.835234 0.843703 -0.561880
v -0.835234 0.501583 -0.561880
v -0.835234 0.159462 -0.561880
v -0.835234 -0.182658 -0.561880
v -0.835234 -0.524778 -0.561880
v -0.835234 -0.866898 -0.561880
v -0.835234 -1.209018 -0.561880
v -0.835234 -1.551139 -0.561880
v -0.835234 -1.893259 -0.561880
v -0.835234 -2.235379 -0.561880
v -0.835234 -2.577499 -0.561880
v -0.835234 -2.919620 -0.561880
v -0.579568 -3.261740 -0.391049
v -0.710871 3.238544 -0.713416
v -0.710871 2.896424 -0.713416
v -0.710871 2.554304 -0.713416
v -0.710871 2.212184 -0.713416
v -0.710871 1.870064 -0.713416
v -0.710871 1.527943 -0.713416
v -0.710871 1.185823 -0.713416
v -0.710871 0.843703 -0.713416
v -0.710871 0.501583 -0.713416
v -0.710871 0.159462 -0.713416
v -0.710871 -0.182658 -0.713416
v -0.710871 -0.524778 -0.713416
v -0.710871 -0.866898 -0.713416
v -0.710871 -1.209018 -0.713416
v -0.710871 -1.551139 -0.713416
v -0.710871 -1.893259 -0.713416
v -0.710871 -2.235379 -0.713416
v -0.710871 -2.577499 -0.713416
v -0.710871 -2.919620 -0.713416
v -0.493445 -3.261740 -0.495990
v -0.559335 3.238544 -0.837779
v -0.559335 2.896424 -0.837779
v -0.559335 2.554304 -0.837779
v -0.559335 2.212184 -0.837779
v -0.559335 1.870064 -0.837779
v -0.559335 1.527943 -0.837779
v -0.559335 1.185823 -0.837779
v -0.559335 0.843703 -0.837779
v -0.559335 0.501583 -0.837779
v -0.559335 0.159462 -0.837779
v -0.559335 -0.182658 -0.837779
v -0.559335 -0.524778 -0.837779
v -0.559335 -0.866898 -0.837779
v -0.559335 -1.209018 -0.837779
v -0.559335 -1.551139 -0.837779
v -0.559335 -1.893259 -0.837779
v -0.559335 -2.235379 -0.837779
v -0.559335 -2.577499 -0.837779
v -0.559335 -2.919620 -0.837779
v -0.388504 -3.261740 -0.582113
v -0.386448 3.238544 -0.930189
v -0.386448 2.896424 -0.930189
v -0.386448 2.554304 -0.930189
v -0.386448 2.212184 -0.930189
v -0.386448 1.870064 -0.930189
v -0.386448 1.527943 -0.930189
v -0.386448 1.185823 -0.930189
v -0.386448 0.843703 -0.930189
v -0.386448 0.501583 -0.930189
v -0.386448 0.159462 -0.930189
v -0.386448 -0.182658 -0.930189
v -0.386448 -0.524778 -0.930189
v -0.386448 -0.866898 -0.930189
v -0.386448 -1.209018 -0.930189
v -0.386448 -1.551139 -0.930189
v -0.386448 -1.893259 -0.930189
v -0.386448 -2.235379 -0.930189
v -0.386448 -2.577499 -0.930189
v -0.386448 -2.919620 -0.930189
v -0.268778 -3.261740 -0.646108
v -0.198855 3.238544 -0.987095
v -0.198855 2.896424 -0.987095
v -0.198855 2.554304 -0.987095
v -0.198855 2.212184 -0.987095
v -0.198855 1.870064 -0.987095
v -0.198855 1.527943 -0.987095
v -0.198855 1.185823 -0.987095
v -0.198855 0.843703 -0.987095
v -0.198855 0.501583 -0.987095
v -0.198855 0.159462 -0.987095
v -0.198855 -0.182658 -0.987095
v -0.198855 -0.524778 -0.987095
v -0.198855 -0.866898 -0.987095
v -0.198855 -1.209018 -0.987095
v -0.198855 -1.551139 -0.987095
v -0.198855 -1.893259 -0.987095
v -0.198855 -2.235379 -0.987095
v -0.198855 -2.577499 -0.987095
v -0.198855 -2.919620 -0.987095
v -0.138867 -3.261740 -0.685516
v 0.152570 -3.514544 -0.792257
v 0.302897 -3.514443 -0.746655
v 0.441439 -3.514280 -0.672603
v 0.562872 -3.514060 -0.572946
v 0.662529 -3.513793 -0.451513
v 0.736581 -3.513488 -0.312971
v 0.782183 -3.513157 -0.162644
v 0.797580 -3.512812 -0.006310
v 0.782183 -3.512468 0.150025
v 0.736581 -3.512137 0.300352
v 0.662529 -3.511832 0.438893
v 0.562872 -3.511564 0.560326
v 0.441439 -3.511345 0.659984
v 0.302897 -3.511182 0.734036
v 0.152570 -3.511081 0.779637
v -0.003764 -3.511047 0.795035
v -0.160099 -3.511081 0.779637
v -0.310426 -3.511182 0.734036
v -0.448968 -3.511345 0.659984
v -0.570401 -3.511564 0.560326
v -0.670058 -3.511832 0.438893
v -0.744110 -3.512137 0.300352
v -0.789711 -3.512468 0.150025
v -0.805109 -3.512812 -0.006310
v -0.789711 -3.513157 -0.162644
v -0.744110 -3.513488 -0.312971
v -0.670058 -3.513793 -0.451513
v -0.570401 -3.514060 -0.572946
v -0.448968 -3.514280 -0.672603
v -0.310426 -3.514443 -0.746655
v -0.160099 -3.514544 -0.792257
v -0.003764 -3.514578 -0.807654
vn -0.0000 0.4881 -0.8728
vn -0.0000 0.7442 -0.6679
vn 0.1303 0.7442 -0.6551
vn 0.1703 0.4881 -0.8560
vn 0.2556 0.7442 -0.6171
vn 0.3340 0.4881 -0.8064
vn 0.3711 0.7442 -0.5553
vn 0.4849 0.4881 -0.7257
vn 0.4723 0.7442 -0.4723
vn 0.6172 0.4881 -0.6172
vn 0.5553 0.7442 -0.3711
vn 0.7257 0.4881 -0.4849
vn 0.6171 0.7442 -0.2556
vn 0.8064 0.4881 -0.3340
vn 0.6551 0.7442 -0.1303
vn 0.8560 0.4881 -0.1703
vn 0.6679 0.7442 -0.0000
vn 0.8728 0.4881 -0.0000
vn 0.6551 0.7442 0.1303
vn 0.8560 0.4881 0.1703
vn 0.6171 0.7442 0.2556
vn 0.8064 0.4881 0.3340
vn 0.5553 0.7442 0.3711
vn 0.7257 0.4881 0.4849
vn 0.4723 0.7442 0.4723
vn 0.6172 0.4881 0.6172
vn 0.3711 0.7442 0.5553
vn 0.4849 0.4881 0.7257
vn 0.2556 0.7442 0.6171
vn 0.3340 0.4881 0.8064
vn 0.1303 0.7442 0.6551
vn 0.1703 0.4881 0.8560
vn -0.0000 0.7442 0.6679
vn -0.0000 0.4881 0.8728
vn -0.1303 0.7442 0.6551
vn -0.1703 0.4881 0.8560
vn -0.2556 0.7442 0.6171
vn -0.3340 0.4881 0.8064
vn -0.3711 0.7442 0.5553
vn -0.4849 0.4881 0.7257
vn -0.4723 0.7442 0.4723
vn -0.6172 0.4881 0.6172
vn -0.5553 0.7442 0.3711
vn -0.7257 0.4881 0.4849
vn -0.6171 0.7442 0.2556
vn -0.8064 0.4881 0.3340
vn -0.6551 0.7442 0.1303
vn -0.8560 0.4881 0.1703
vn -0.6679 0.7442 -0.0000
vn -0.8728 0.4881 -0.0000
vn -0.6551 0.7442 -0.1303
vn -0.8560 0.4881 -0.1703
vn -0.6171 0.7442 -0.2556
vn -0.8064 0.4881 -0.3340
vn -0.5553 0.7442 -0.3711
vn -0.7257 0.4881 -0.4849
vn -0.4723 0.7442 -0.4723
vn -0.6172 0.4881 -0.6172
vn -0.3711 0.7442 -0.5553
vn -0.4849 0.4881 -0.7257
vn -0.2556 0.7442 -0.6171
vn -0.3340 0.4881 -0.8064
vn -0.1303 0.7442 -0.6551
vn -0.1703 0.4881 -0.8560
vn -0.1791 0.3954 -0.9009
vn -0.0000 0.3954 -0.9185
vn -0.1451 -0.6685 -0.7295
vn -0.0000 -0.6685 -0.7437
vn -0.1951 -0.0000 -0.9808
vn -0.0000 -0.0000 -1.0000
vn -0.3513 0.3956 -0.8486
vn -0.2846 -0.6685 -0.6871
vn -0.3827 -0.0000 -0.9239
vn -0.5100 0.3958 -0.7637
vn -0.4132 -0.6685 -0.6184
vn -0.5556 -0.0000 -0.8315
vn -0.6490 0.3961 -0.6495
vn -0.5259 -0.6685 -0.5259
vn -0.7071 -0.0000 -0.7071
vn -0.7631 0.3964 -0.5104
vn -0.6184 -0.6685 -0.4132
vn -0.8315 -0.0000 -0.5556
vn -0.8478 0.3968 -0.3517
vn -0.6871 -0.6685 -0.2846
vn -0.9239 -0.0000 -0.3827
vn -0.9000 0.3973 -0.1795
vn -0.7295 -0.6685 -0.1451
vn -0.9808 -0.0000 -0.1951
vn -0.9175 0.3977 -0.0005
vn -0.7437 -0.6685 -0.0000
vn -1.0000 -0.0000 -0.0000
vn -0.8998 0.3982 0.1784
vn -0.8998 0.3982 0.1785
vn -0.7295 -0.6685 0.1451
vn -0.9808 -0.0000 0.1951
vn -0.8475 0.3986 0.3505
vn -0.6871 -0.6685 0.2846
vn -0.9239 -0.0000 0.3827
vn -0.7627 0.3990 0.5091
vn -0.7626 0.3990 0.5091
vn -0.6184 -0.6685 0.4132
vn -0.8315 -0.0000 0.5556
vn -0.6485 0.3994 0.6480
vn -0.5259 -0.6685 0.5259
vn -0.7071 -0.0000 0.7071
vn -0.5095 0.3997 0.7620
vn -0.4132 -0.6685 0.6184
vn -0.5556 -0.0000 0.8315
vn -0.3509 0.3999 0.8467
vn -0.2846 -0.6685 0.6871
vn -0.3827 -0.0000 0.9239
vn -0.1789 0.4000 0.8989
vn -0.1451 -0.6685 0.7295
vn -0.1951 -0.0000 0.9808
vn -0.0000 0.4001 0.9165
vn -0.0000 -0.6685 0.7437
vn -0.0000 -0.0000 1.0000
vn 0.1789 0.4000 0.8989
vn 0.1451 -0.6685 0.7295
vn 0.1951 -0.0000 0.9808
vn 0.3509 0.3999 0.8467
vn 0.2846 -0.6685 0.6871
vn 0.3827 -0.0000 0.9239
vn 0.5095 0.3997 0.7620
vn 0.4132 -0.6685 0.6184
vn 0.5556 -0.0000 0.8315
vn 0.6485 0.3994 0.6480
vn 0.5259 -0.6685 0.5259
vn 0.7071 -0.0000 0.7071
vn 0.7627 0.3990 0.5091
vn 0.7626 0.3990 0.5091
vn 0.6184 -0.6685 0.4132
vn 0.8315 -0.0000 0.5556
vn 0.8475 0.3986 0.3505
vn 0.6871 -0.6685 0.2846
vn 0.9239 -0.0000 0.3827
vn 0.8998 0.3982 0.1784
vn 0.8998 0.3982 0.1785
vn 0.7295 -0.6685 0.1451
vn 0.9808 -0.0000 0.1951
vn 0.9175 0.3977 -0.0005
vn 0.7437 -0.6685 -0.0000
vn 1.0000 -0.0000 -0.0000
vn 0.9000 0.3973 -0.1795
vn 0.7295 -0.6685 -0.1451
vn 0.9808 -0.0000 -0.1951
vn 0.8478 0.3968 -0.3517
vn 0.6871 -0.6685 -0.2846
vn 0.9239 -0.0000 -0.3827
vn 0.7631 0.3964 -0.5104
vn 0.6184 -0.6685 -0.4132
vn 0.8315 -0.0000 -0.5556
vn 0.6490 0.3961 -0.6495
vn 0.5259 -0.6685 -0.5259
vn 0.7071 -0.0000 -0.7071
vn 0.5100 0.3958 -0.7637
vn 0.4132 -0.6685 -0.6184
vn 0.5556 -0.0000 -0.8315
vn 0.3513 0.3956 -0.8486
vn 0.2846 -0.6685 -0.6871
vn 0.3827 -0.0000 -0.9239
vn 0.1791 0.3954 -0.9009
vn 0.1451 -0.6685 -0.7295
vn 0.1951 -0.0000 -0.9808
vt 1.000000 0.983712
vt 1.000000 1.000000
vt 0.968750 1.000000
vt 0.968750 0.983712
vt 0.937500 1.000000
vt 0.937500 0.983712
vt 0.906250 1.000000
vt 0.906250 0.983712
vt 0.875000 1.000000
vt 0.875000 0.983712
vt 0.843750 1.000000
vt 0.843750 0.983712
vt 0.812500 1.000000
vt 0.812500 0.983712
vt 0.781250 1.000000
vt 0.781250 0.983712
vt 0.750000 1.000000
vt 0.750000 0.983712
vt 0.718750 1.000000
vt 0.718750 0.983712
vt 0.687500 1.000000
vt 0.687500 0.983712
vt 0.656250 1.000000
vt 0.656250 0.983712
vt 0.625000 1.000000
vt 0.625000 0.983712
vt 0.593750 1.000000
vt 0.593750 0.983712
vt 0.562500 1.000000
vt 0.562500 0.983712
vt 0.531250 1.000000
vt 0.531250 0.983712
vt 0.500000 1.000000
vt 0.500000 0.983712
vt 0.468750 1.000000
vt 0.468750 0.983712
vt 0.437500 1.000000
vt 0.437500 0.983712
vt 0.406250 1.000000
vt 0.406250 0.983712
vt 0.375000 1.000000
vt 0.375000 0.983712
vt 0.343750 1.000000
vt 0.343750 0.983712
vt 0.312500 1.000000
vt 0.312500 0.983712
vt 0.281250 1.000000
vt 0.281250 0.983712
vt 0.250000 1.000000
vt 0.250000 0.983712
vt 0.218750 1.000000
vt 0.218750 0.983712
vt 0.187500 1.000000
vt 0.187500 0.983712
vt 0.156250 1.000000
vt 0.156250 0.983712
vt 0.125000 1.000000
vt 0.125000 0.983712
vt 0.093750 1.000000
vt 0.093750 0.983712
vt 0.062500 1.000000
vt 0.062500 0.983712
vt 0.296822 0.485388
vt 0.250000 0.490000
vt 0.203178 0.485388
vt 0.158156 0.471731
vt 0.116663 0.449553
vt 0.080294 0.419706
vt 0.050447 0.383337
vt 0.028269 0.341844
vt 0.014612 0.296822
vt 0.010000 0.250000
vt 0.014612 0.203178
vt 0.028269 0.158156
vt 0.050447 0.116663
vt 0.080294 0.080294
vt 0.116663 0.050447
vt 0.158156 0.028269
vt 0.203178 0.014612
vt 0.250000 0.010000
vt 0.296822 0.014612
vt 0.341844 0.028269
vt 0.383337 0.050447
vt 0.419706 0.080294
vt 0.449553 0.116663
vt 0.471731 0.158156
vt 0.485388 0.203178
vt 0.490000 0.250000
vt 0.485388 0.296822
vt 0.471731 0.341844
vt 0.449553 0.383337
vt 0.419706 0.419706
vt 0.383337 0.449553
vt 0.341844 0.471731
vt 0.031250 1.000000
vt 0.031250 0.983712
vt 0.000000 1.000000
vt 0.000000 0.983712
vt 0.031250 0.513708
vt 0.031250 0.531331
vt 0.000000 0.531331
vt 0.000000 0.513705
vt 0.031250 0.555141
vt 0.000000 0.555141
vt 0.031250 0.578950
vt 0.000000 0.578950
vt 0.031250 0.602760
vt 0.000000 0.602760
vt 0.031250 0.626569
vt 0.000000 0.626569
vt 0.031250 0.650379
vt 0.000000 0.650379
vt 0.031250 0.674188
vt 0.000000 0.674188
vt 0.031250 0.697998
vt 0.000000 0.697998
vt 0.031250 0.721807
vt 0.000000 0.721807
vt 0.031250 0.745617
vt 0.000000 0.745617
vt 0.031250 0.769427
vt 0.000000 0.769426
vt 0.031250 0.793236
vt 0.000000 0.793236
vt 0.031250 0.817046
vt 0.000000 0.817046
vt 0.031250 0.840855
vt 0.000000 0.840855
vt 0.031250 0.864665
vt 0.000000 0.864665
vt 0.031250 0.888474
vt 0.000000 0.888474
vt 0.031250 0.912284
vt 0.000000 0.912284
vt 0.031250 0.936093
vt 0.000000 0.936093
vt 0.031250 0.959903
vt 0.000000 0.959903
vt 0.062500 0.513716
vt 0.062500 0.531331
vt 0.062500 0.555141
vt 0.062500 0.578950
vt 0.062500 0.602760
vt 0.062500 0.626569
vt 0.062500 0.650379
vt 0.062500 0.674188
vt 0.062500 0.697998
vt 0.062500 0.721807
vt 0.062500 0.745617
vt 0.062500 0.769427
vt 0.062500 0.793236
vt 0.062500 0.817045
vt 0.062500 0.840855
vt 0.062500 0.864665
vt 0.062500 0.888474
vt 0.062500 0.912284
vt 0.062500 0.936093
vt 0.062500 0.959903
vt 0.093750 0.513731
vt 0.093750 0.531331
vt 0.093750 0.555141
vt 0.093750 0.578950
vt 0.093750 0.602760
vt 0.093750 0.626569
vt 0.093750 0.650379
vt 0.093750 0.674188
vt 0.093750 0.697998
vt 0.093750 0.721807
vt 0.093750 0.745617
vt 0.093750 0.769426
vt 0.093750 0.793236
vt 0.093750 0.817046
vt 0.093750 0.840855
vt 0.093750 0.864665
vt 0.093750 0.888474
vt 0.093750 0.912284
vt 0.093750 0.936093
vt 0.093750 0.959903
vt 0.125000 0.513750
vt 0.125000 0.531331
vt 0.125000 0.555141
vt 0.125000 0.578950
vt 0.125000 0.602760
vt 0.125000 0.626569
vt 0.125000 0.650379
vt 0.125000 0.674188
vt 0.125000 0.697998
vt 0.125000 0.721807
vt 0.125000 0.745617
vt 0.125000 0.769426
vt 0.125000 0.793236
vt 0.125000 0.817046
vt 0.125000 0.840855
vt 0.125000 0.864665
vt 0.125000 0.888474
vt 0.125000 0.912284
vt 0.125000 0.936093
vt 0.125000 0.959903
vt 0.156250 0.513773
vt 0.156250 0.531331
vt 0.156250 0.555141
vt 0.156250 0.578950
vt 0.156250 0.602760
vt 0.156250 0.626569
vt 0.156250 0.650379
vt 0.156250 0.674188
vt 0.156250 0.697998
vt 0.156250 0.721807
vt 0.156250 0.745617
vt 0.156250 0.769427
vt 0.156250 0.793236
vt 0.156250 0.817046
vt 0.156250 0.840855
vt 0.156250 0.864665
vt 0.156250 0.888474
vt 0.156250 0.912284
vt 0.156250 0.936093
vt 0.156250 0.959903
vt 0.187500 0.513799
vt 0.187500 0.531331
vt 0.187500 0.555141
vt 0.187500 0.578950
vt 0.187500 0.602760
vt 0.187500 0.626569
vt 0.187500 0.650379
vt 0.187500 0.674188
vt 0.187500 0.697998
vt 0.187500 0.721807
vt 0.187500 0.745617
vt 0.187500 0.769426
vt 0.187500 0.793236
vt 0.187500 0.817046
vt 0.187500 0.840855
vt 0.187500 0.864665
vt 0.187500 0.888474
vt 0.187500 0.912284
vt 0.187500 0.936093
vt 0.187500 0.959903
vt 0.218750 0.513828
vt 0.218750 0.531331
vt 0.218750 0.555141
vt 0.218750 0.578950
vt 0.218750 0.602760
vt 0.218750 0.626569
vt 0.218750 0.650379
vt 0.218750 0.674188
vt 0.218750 0.697998
vt 0.218750 0.721807
vt 0.218750 0.745617
vt 0.218750 0.769427
vt 0.218750 0.793236
vt 0.218750 0.817046
vt 0.218750 0.840855
vt 0.218750 0.864665
vt 0.218750 0.888474
vt 0.218750 0.912284
vt 0.218750 0.936093
vt 0.218750 0.959903
vt 0.250000 0.513858
vt 0.250000 0.531331
vt 0.250000 0.555141
vt 0.250000 0.578950
vt 0.250000 0.602760
vt 0.250000 0.626569
vt 0.250000 0.650379
vt 0.250000 0.674188
vt 0.250000 0.697998
vt 0.250000 0.721807
vt 0.250000 0.745617
vt 0.250000 0.769427
vt 0.250000 0.793236
vt 0.250000 0.817046
vt 0.250000 0.840855
vt 0.250000 0.864665
vt 0.250000 0.888474
vt 0.250000 0.912284
vt 0.250000 0.936093
vt 0.250000 0.959903
vt 0.281250 0.513888
vt 0.281250 0.531331
vt 0.281250 0.555141
vt 0.281250 0.578950
vt 0.281250 0.602760
vt 0.281250 0.626569
vt 0.281250 0.650379
vt 0.281250 0.674188
vt 0.281250 0.697998
vt 0.281250 0.721807
vt 0.281250 0.745617
vt 0.281250 0.769426
vt 0.281250 0.793236
vt 0.281250 0.817046
vt 0.281250 0.840855
vt 0.281250 0.864665
vt 0.281250 0.888474
vt 0.281250 0.912284
vt 0.281250 0.936093
vt 0.281250 0.959903
vt 0.312500 0.513917
vt 0.312500 0.531331
vt 0.312500 0.555141
vt 0.312500 0.578950
vt 0.312500 0.602760
vt 0.312500 0.626569
vt 0.312500 0.650379
vt 0.312500 0.674188
vt 0.312500 0.697998
vt 0.312500 0.721807
vt 0.312500 0.745617
vt 0.312500 0.769427
vt 0.312500 0.793236
vt 0.312500 0.817045
vt 0.312500 0.840855
vt 0.312500 0.864665
vt 0.312500 0.888474
vt 0.312500 0.912284
vt 0.312500 0.936093
vt 0.312500 0.959903
vt 0.343750 0.513943
vt 0.343750 0.531331
vt 0.343750 0.555141
vt 0.343750 0.578950
vt 0.343750 0.602760
vt 0.343750 0.626569
vt 0.343750 0.650379
vt 0.343750 0.674188
vt 0.343750 0.697998
vt 0.343750 0.721807
vt 0.343750 0.745617
vt 0.343750 0.769426
vt 0.343750 0.793236
vt 0.343750 0.817046
vt 0.343750 0.840855
vt 0.343750 0.864665
vt 0.343750 0.888474
vt 0.343750 0.912284
vt 0.343750 0.936093
vt 0.343750 0.959903
vt 0.375000 0.513966
vt 0.375000 0.531331
vt 0.375000 0.555141
vt 0.375000 0.578950
vt 0.375000 0.602760
vt 0.375000 0.626569
vt 0.375000 0.650379
vt 0.375000 0.674188
vt 0.375000 0.697998
vt 0.375000 0.721807
vt 0.375000 0.745617
vt 0.375000 0.769426
vt 0.375000 0.793236
vt 0.375000 0.817046
vt 0.375000 0.840855
vt 0.375000 0.864665
vt 0.375000 0.888474
vt 0.375000 0.912284
vt 0.375000 0.936093
vt 0.375000 0.959903
vt 0.406250 0.513986
vt 0.406250 0.531331
vt 0.406250 0.555141
vt 0.406250 0.578950
vt 0.406250 0.602760
vt 0.406250 0.626569
vt 0.406250 0.650379
vt 0.406250 0.674188
vt 0.406250 0.697998
vt 0.406250 0.721807
vt 0.406250 0.745617
vt 0.406250 0.769427
vt 0.406250 0.793236
vt 0.406250 0.817046
vt 0.406250 0.840855
vt 0.406250 0.864665
vt 0.406250 0.888474
vt 0.406250 0.912284
vt 0.406250 0.936093
vt 0.406250 0.959903
vt 0.437500 0.514000
vt 0.437500 0.531331
vt 0.437500 0.555141
vt 0.437500 0.578950
vt 0.437500 0.602760
vt 0.437500 0.626569
vt 0.437500 0.650379
vt 0.437500 0.674188
vt 0.437500 0.697998
vt 0.437500 0.721807
vt 0.437500 0.745617
vt 0.437500 0.769426
vt 0.437500 0.793236
vt 0.437500 0.817046
vt 0.437500 0.840855
vt 0.437500 0.864665
vt 0.437500 0.888474
vt 0.437500 0.912284
vt 0.437500 0.936093
vt 0.437500 0.959903
vt 0.468750 0.514008
vt 0.468750 0.531331
vt 0.468750 0.555141
vt 0.468750 0.578950
vt 0.468750 0.602760
vt 0.468750 0.626569
vt 0.468750 0.650379
vt 0.468750 0.674188
vt 0.468750 0.697998
vt 0.468750 0.721807
vt 0.468750 0.745617
vt 0.468750 0.769427
vt 0.468750 0.793236
vt 0.468750 0.817046
vt 0.468750 0.840855
vt 0.468750 0.864665
vt 0.468750 0.888474
vt 0.468750 0.912284
vt 0.468750 0.936093
vt 0.468750 0.959903
vt 0.500000 0.514011
vt 0.500000 0.531331
vt 0.500000 0.555141
vt 0.500000 0.578950
vt 0.500000 0.602760
vt 0.500000 0.626569
vt 0.500000 0.650379
vt 0.500000 0.674188
vt 0.500000 0.697998
vt 0.500000 0.721807
vt 0.500000 0.745617
vt 0.500000 0.769427
vt 0.500000 0.793236
vt 0.500000 0.817046
vt 0.500000 0.840855
vt 0.500000 0.864665
vt 0.500000 0.888474
vt 0.500000 0.912284
vt 0.500000 0.936093
vt 0.500000 0.959903
vt 0.531250 0.514008
vt 0.531250 0.531331
vt 0.531250 0.555141
vt 0.531250 0.578950
vt 0.531250 0.602760
vt 0.531250 0.626569
vt 0.531250 0.650379
vt 0.531250 0.674188
vt 0.531250 0.697998
vt 0.531250 0.721807
vt 0.531250 0.745617
vt 0.531250 0.769426
vt 0.531250 0.793236
vt 0.531250 0.817046
vt 0.531250 0.840855
vt 0.531250 0.864665
vt 0.531250 0.888474
vt 0.531250 0.912284
vt 0.531250 0.936093
vt 0.531250 0.959903
vt 0.562500 0.514000
vt 0.562500 0.531331
vt 0.562500 0.555141
vt 0.562500 0.578950
vt 0.562500 0.602760
vt 0.562500 0.626569
vt 0.562500 0.650379
vt 0.562500 0.674188
vt 0.562500 0.697998
vt 0.562500 0.721807
vt 0.562500 0.745617
vt 0.562500 0.769427
vt 0.562500 0.793236
vt 0.562500 0.817045
vt 0.562500 0.840855
vt 0.562500 0.864665
vt 0.562500 0.888474
vt 0.562500 0.912284
vt 0.562500 0.936093
vt 0.562500 0.959903
vt 0.593750 0.513986
vt 0.593750 0.531331
vt 0.593750 0.555141
vt 0.593750 0.578950
vt 0.593750 0.602760
vt 0.593750 0.626569
vt 0.593750 0.650379
vt 0.593750 0.674188
vt 0.593750 0.697998
vt 0.593750 0.721807
vt 0.593750 0.745617
vt 0.593750 0.769426
vt 0.593750 0.793236
vt 0.593750 0.817046
vt 0.593750 0.840855
vt 0.593750 0.864665
vt 0.593750 0.888474
vt 0.593750 0.912284
vt 0.593750 0.936093
vt 0.593750 0.959903
vt 0.625000 0.513966
vt 0.625000 0.531331
vt 0.625000 0.555141
vt 0.625000 0.578950
vt 0.625000 0.602760
vt 0.625000 0.626569
vt 0.625000 0.650379
vt 0.625000 0.674188
vt 0.625000 0.697998
vt 0.625000 0.721807
vt 0.625000 0.745617
vt 0.625000 0.769426
vt 0.625000 0.793236
vt 0.625000 0.817046
vt 0.625000 0.840855
vt 0.625000 0.864665
vt 0.625000 0.888474
vt 0.625000 0.912284
vt 0.625000 0.936093
vt 0.625000 0.959903
vt 0.656250 0.513943
vt 0.656250 0.531331
vt 0.656250 0.555141
vt 0.656250 0.578950
vt 0.656250 0.602760
vt 0.656250 0.626569
vt 0.656250 0.650379
vt 0.656250 0.674188
vt 0.656250 0.697998
vt 0.656250 0.721807
vt 0.656250 0.745617
vt 0.656250 0.769427
vt 0.656250 0.793236
vt 0.656250 0.817046
vt 0.656250 0.840855
vt 0.656250 0.864665
vt 0.656250 0.888474
vt 0.656250 0.912284
vt 0.656250 0.936093
vt 0.656250 0.959903
vt 0.687500 0.513917
vt 0.687500 0.531331
vt 0.687500 0.555141
vt 0.687500 0.578950
vt 0.687500 0.602760
vt 0.687500 0.626569
vt 0.687500 0.650379
vt 0.687500 0.674188
vt 0.687500 0.697998
vt 0.687500 0.721807
vt 0.687500 0.745617
vt 0.687500 0.769426
vt 0.687500 0.793236
vt 0.687500 0.817046
vt 0.687500 0.840855
vt 0.687500 0.864665
vt 0.687500 0.888474
vt 0.687500 0.912284
vt 0.687500 0.936093
vt 0.687500 0.959903
vt 0.718750 0.513888
vt 0.718750 0.531331
vt 0.718750 0.555141
vt 0.718750 0.578950
vt 0.718750 0.602760
vt 0.718750 0.626569
vt 0.718750 0.650379
vt 0.718750 0.674188
vt 0.718750 0.697998
vt 0.718750 0.721807
vt 0.718750 0.745617
vt 0.718750 0.769427
vt 0.718750 0.793236
vt 0.718750 0.817046
vt 0.718750 0.840855
vt 0.718750 0.864665
vt 0.718750 0.888474
vt 0.718750 0.912284
vt 0.718750 0.936093
vt 0.718750 0.959903
vt 0.750000 0.513858
vt 0.750000 0.531331
vt 0.750000 0.555141
vt 0.750000 0.578950
vt 0.750000 0.602760
vt 0.750000 0.626569
vt 0.750000 0.650379
vt 0.750000 0.674188
vt 0.750000 0.697998
vt 0.750000 0.721807
vt 0.750000 0.745617
vt 0.750000 0.769427
vt 0.750000 0.793236
vt 0.750000 0.817046
vt 0.750000 0.840855
vt 0.750000 0.864665
vt 0.750000 0.888474
vt 0.750000 0.912284
vt 0.750000 0.936093
vt 0.750000 0.959903
vt 0.781250 0.513828
vt 0.781250 0.531331
vt 0.781250 0.555141
vt 0.781250 0.578950
vt 0.781250 0.602760
vt 0.781250 0.626569
vt 0.781250 0.650379
vt 0.781250 0.674188
vt 0.781250 0.697998
vt 0.781250 0.721807
vt 0.781250 0.745617
vt 0.781250 0.769426
vt 0.781250 0.793236
vt 0.781250 0.817046
vt 0.781250 0.840855
vt 0.781250 0.864665
vt 0.781250 0.888474
vt 0.781250 0.912284
vt 0.781250 0.936093
vt 0.781250 0.959903
vt 0.812500 0.513799
vt 0.812500 0.531331
vt 0.812500 0.555141
vt 0.812500 0.578950
vt 0.812500 0.602760
vt 0.812500 0.626569
vt 0.812500 0.650379
vt 0.812500 0.674188
vt 0.812500 0.697998
vt 0.812500 0.721807
vt 0.812500 0.745617
vt 0.812500 0.769427
vt 0.812500 0.793236
vt 0.812500 0.817045
vt 0.812500 0.840855
vt 0.812500 0.864665
vt 0.812500 0.888474
vt 0.812500 0.912284
vt 0.812500 0.936093
vt 0.812500 0.959903
vt 0.843750 0.513773
vt 0.843750 0.531331
vt 0.843750 0.555141
vt 0.843750 0.578950
vt 0.843750 0.602760
vt 0.843750 0.626569
vt 0.843750 0.650379
vt 0.843750 0.674188
vt 0.843750 0.697998
vt 0.843750 0.721807
vt 0.843750 0.745617
vt 0.843750 0.769426
vt 0.843750 0.793236
vt 0.843750 0.817046
vt 0.843750 0.840855
vt 0.843750 0.864665
vt 0.843750 0.888474
vt 0.843750 0.912284
vt 0.843750 0.936093
vt 0.843750 0.959903
vt 0.875000 0.513750
vt 0.875000 0.531331
vt 0.875000 0.555141
vt 0.875000 0.578950
vt 0.875000 0.602760
vt 0.875000 0.626569
vt 0.875000 0.650379
vt 0.875000 0.674188
vt 0.875000 0.697998
vt 0.875000 0.721807
vt 0.875000 0.745617
vt 0.875000 0.769426
vt 0.875000 0.793236
vt 0.875000 0.817046
vt 0.875000 0.840855
vt 0.875000 0.864665
vt 0.875000 0.888474
vt 0.875000 0.912284
vt 0.875000 0.936093
vt 0.875000 0.959903
vt 0.906250 0.513731
vt 0.906250 0.531331
vt 0.906250 0.555141
vt 0.906250 0.578950
vt 0.906250 0.602760
vt 0.906250 0.626569
vt 0.906250 0.650379
vt 0.906250 0.674188
vt 0.906250 0.697998
vt 0.906250 0.721807
vt 0.906250 0.745617
vt 0.906250 0.769427
vt 0.906250 0.793236
vt 0.906250 0.817046
vt 0.906250 0.840855
vt 0.906250 0.864665
vt 0.906250 0.888474
vt 0.906250 0.912284
vt 0.906250 0.936093
vt 0.906250 0.959903
vt 0.937500 0.513716
vt 0.937500 0.531331
vt 0.937500 0.555141
vt 0.937500 0.578950
vt 0.937500 0.602760
vt 0.937500 0.626569
vt 0.937500 0.650379
vt 0.937500 0.674188
vt 0.937500 0.697998
vt 0.937500 0.721807
vt 0.937500 0.745617
vt 0.937500 0.769426
vt 0.937500 0.793236
vt 0.937500 0.817046
vt 0.937500 0.840855
vt 0.937500 0.864665
vt 0.937500 0.888474
vt 0.937500 0.912284
vt 0.937500 0.936093
vt 0.937500 0.959903
vt 0.968750 0.513708
vt 0.968750 0.531331
vt 0.968750 0.555141
vt 0.968750 0.578950
vt 0.968750 0.602760
vt 0.968750 0.626569
vt 0.968750 0.650379
vt 0.968750 0.674188
vt 0.968750 0.697998
vt 0.968750 0.721807
vt 0.968750 0.745617
vt 0.968750 0.769427
vt 0.968750 0.793236
vt 0.968750 0.817046
vt 0.968750 0.840855
vt 0.968750 0.864665
vt 0.968750 0.888474
vt 0.968750 0.912284
vt 0.968750 0.936093
vt 0.968750 0.959903
vt 1.000000 0.513705
vt 1.000000 0.531331
vt 1.000000 0.555141
vt 1.000000 0.578950
vt 1.000000 0.602760
vt 1.000000 0.626569
vt 1.000000 0.650379
vt 1.000000 0.674188
vt 1.000000 0.697998
vt 1.000000 0.721807
vt 1.000000 0.745617
vt 1.000000 0.769426
vt 1.000000 0.793236
vt 1.000000 0.817046
vt 1.000000 0.840855
vt 1.000000 0.864665
vt 1.000000 0.888474
vt 1.000000 0.912284
vt 1.000000 0.936093
vt 1.000000 0.959903
s 1
f 52/1/1 1/2/2 2/3/3 53/4/4
f 53/4/4 2/3/3 3/5/5 73/6/6
f 73/6/6 3/5/5 4/7/7 93/8/8
f 93/8/8 4/7/7 5/9/9 113/10/10
f 113/10/10 5/9/9 6/11/11 133/12/12
f 133/12/12 6/11/11 7/13/13 153/14/14
f 153/14/14 7/13/13 8/15/15 173/16/16
f 173/16/16 8/15/15 9/17/17 193/18/18
f 193/18/18 9/17/17 10/19/19 213/20/20
f 213/20/20 10/19/19 11/21/21 233/22/22
f 233/22/22 11/21/21 12/23/23 253/24/24
f 253/24/24 12/23/23 13/25/25 273/26/26
f 273/26/26 13/25/25 14/27/27 293/28/28
f 293/28/28 14/27/27 15/29/29 313/30/30
f 313/30/30 15/29/29 16/31/31 333/32/32
f 333/32/32 16/31/31 17/33/33 353/34/34
f 353/34/34 17/33/33 18/35/35 373/36/36
f 373/36/36 18/35/35 19/37/37 393/38/38
f 393/38/38 19/37/37 20/39/39 413/40/40
f 413/40/40 20/39/39 21/41/41 433/42/42
f 433/42/42 21/41/41 22/43/43 453/44/44
f 453/44/44 22/43/43 23/45/45 473/46/46
f 473/46/46 23/45/45 24/47/47 493/48/48
f 493/48/48 24/47/47 25/49/49 513/50/50
f 513/50/50 25/49/49 26/51/51 533/52/52
f 533/52/52 26/51/51 27/53/53 553/54/54
f 553/54/54 27/53/53 28/55/55 573/56/56
f 573/56/56 28/55/55 29/57/57 593/58/58
f 593/58/58 29/57/57 30/59/59 613/60/60
f 613/60/60 30/59/59 31/61/61 633/62/62
f 2/63/3 1/64/2 32/65/63 31/66/61 30/67/59 29/68/57 28/69/55 27/70/53 26/71/51 25/72/49 24/73/47 23/74/45 22/75/43 21/76/41 20/77/39 19/78/37 18/79/35 17/80/33 16/81/31 15/82/29 14/83/27 13/84/25 12/85/23 11/86/21 10/87/19 9/88/17 8/89/15 7/90/13 6/91/11 5/92/9 4/93/7 3/94/5
f 633/62/62 31/61/61 32/95/63 653/96/64
f 653/96/64 32/95/63 1/97/2 52/98/1
f 703/99/65 672/100/65 33/101/66 704/102/66
f 672/100/67 671/103/67 34/104/68 33/101/68
f 671/103/69 670/105/69 35/106/70 34/104/70
f 670/105/69 669/107/69 36/108/70 35/106/70
f 669/107/69 668/109/69 37/110/70 36/108/70
f 668/109/69 667/111/69 38/112/70 37/110/70
f 667/111/69 666/113/69 39/114/70 38/112/70
f 666/113/69 665/115/69 40/116/70 39/114/70
f 665/115/69 664/117/69 41/118/70 40/116/70
f 664/117/69 663/119/69 42/120/70 41/118/70
f 663/119/69 662/121/69 43/122/70 42/120/70
f 662/121/69 661/123/69 44/124/70 43/122/70
f 661/123/69 660/125/69 45/126/70 44/124/70
f 660/125/69 659/127/69 46/128/70 45/126/70
f 659/127/69 658/129/69 47/130/70 46/128/70
f 658/129/69 657/131/69 48/132/70 47/130/70
f 657/131/69 656/133/69 49/134/70 48/132/70
f 656/133/69 655/135/69 50/136/70 49/134/70
f 655/135/69 654/137/69 51/138/70 50/136/70
f 654/137/69 653/96/69 52/98/70 51/138/70
f 702/139/71 652/140/71 672/100/65 703/99/65
f 652/140/72 651/141/72 671/103/67 672/100/67
f 651/141/73 650/142/73 670/105/69 671/103/69
f 650/142/73 649/143/73 669/107/69 670/105/69
f 649/143/73 648/144/73 668/109/69 669/107/69
f 648/144/73 647/145/73 667/111/69 668/109/69
f 647/145/73 646/146/73 666/113/69 667/111/69
f 646/146/73 645/147/73 665/115/69 666/113/69
f 645/147/73 644/148/73 664/117/69 665/115/69
f 644/148/73 643/149/73 663/119/69 664/117/69
f 643/149/73 642/150/73 662/121/69 663/119/69
f 642/150/73 641/151/73 661/123/69 662/121/69
f 641/151/73 640/152/73 660/125/69 661/123/69
f 640/152/73 639/153/73 659/127/69 660/125/69
f 639/153/73 638/154/73 658/129/69 659/127/69
f 638/154/73 637/155/73 657/131/69 658/129/69
f 637/155/73 636/156/73 656/133/69 657/131/69
f 636/156/73 635/157/73 655/135/69 656/133/69
f 635/157/73 634/158/73 654/137/69 655/135/69
f 634/158/73 633/62/73 653/96/69 654/137/69
f 701/159/74 632/160/74 652/140/71 702/139/71
f 632/160/75 631/161/75 651/141/72 652/140/72
f 631/161/76 630/162/76 650/142/73 651/141/73
f 630/162/76 629/163/76 649/143/73 650/142/73
f 629/163/76 628/164/76 648/144/73 649/143/73
f 628/164/76 627/165/76 647/145/73 648/144/73
f 627/165/76 626/166/76 646/146/73 647/145/73
f 626/166/76 625/167/76 645/147/73 646/146/73
f 625/167/76 624/168/76 644/148/73 645/147/73
f 624/168/76 623/169/76 643/149/73 644/148/73
f 623/169/76 622/170/76 642/150/73 643/149/73
f 622/170/76 621/171/76 641/151/73 642/150/73
f 621/171/76 620/172/76 640/152/73 641/151/73
f 620/172/76 619/173/76 639/153/73 640/152/73
f 619/173/76 618/174/76 638/154/73 639/153/73
f 618/174/76 617/175/76 637/155/73 638/154/73
f 617/175/76 616/176/76 636/156/73 637/155/73
f 616/176/76 615/177/76 635/157/73 636/156/73
f 615/177/76 614/178/76 634/158/73 635/157/73
f 614/178/76 613/60/76 633/62/73 634/158/73
f 700/179/77 612/180/77 632/160/74 701/159/74
f 612/180/78 611/181/78 631/161/75 632/160/75
f 611/181/79 610/182/79 630/162/76 631/161/76
f 610/182/79 609/183/79 629/163/76 630/162/76
f 609/183/79 608/184/79 628/164/76 629/163/76
f 608/184/79 607/185/79 627/165/76 628/164/76
f 607/185/79 606/186/79 626/166/76 627/165/76
f 606/186/79 605/187/79 625/167/76 626/166/76
f 605/187/79 604/188/79 624/168/76 625/167/76
f 604/188/79 603/189/79 623/169/76 624/168/76
f 603/189/79 602/190/79 622/170/76 623/169/76
f 602/190/79 601/191/79 621/171/76 622/170/76
f 601/191/79 600/192/79 620/172/76 621/171/76
f 600/192/79 599/193/79 619/173/76 620/172/76
f 599/193/79 598/194/79 618/174/76 619/173/76
f 598/194/79 597/195/79 617/175/76 618/174/76
f 597/195/79 596/196/79 616/176/76 617/175/76
f 596/196/79 595/197/79 615/177/76 616/176/76
f 595/197/79 594/198/79 614/178/76 615/177/76
f 594/198/79 593/58/79 613/60/76 614/178/76
f 699/199/80 592/200/80 612/180/77 700/179/77
f 592/200/81 591/201/81 611/181/78 612/180/78
f 591/201/82 590/202/82 610/182/79 611/181/79
f 590/202/82 589/203/82 609/183/79 610/182/79
f 589/203/82 588/204/82 608/184/79 609/183/79
f 588/204/82 587/205/82 607/185/79 608/184/79
f 587/205/82 586/206/82 606/186/79 607/185/79
f 586/206/82 585/207/82 605/187/79 606/186/79
f 585/207/82 584/208/82 604/188/79 605/187/79
f 584/208/82 583/209/82 603/189/79 604/188/79
f 583/209/82 582/210/82 602/190/79 603/189/79
f 582/210/82 581/211/82 601/191/79 602/190/79
f 581/211/82 580/212/82 600/192/79 601/191/79
f 580/212/82 579/213/82 599/193/79 600/192/79
f 579/213/82 578/214/82 598/194/79 599/193/79
f 578/214/82 577/215/82 597/195/79 598/194/79
f 577/215/82 576/216/82 596/196/79 597/195/79
f 576/216/82 575/217/82 595/197/79 596/196/79
f 575/217/82 574/218/82 594/198/79 595/197/79
f 574/218/82 573/56/82 593/58/79 594/198/79
f 698/219/83 572/220/83 592/200/80 699/199/80
f 572/220/84 571/221/84 591/201/81 592/200/81
f 571/221/85 570/222/85 590/202/82 591/201/82
f 570/222/85 569/223/85 589/203/82 590/202/82
f 569/223/85 568/224/85 588/204/82 589/203/82
f 568/224/85 567/225/85 587/205/82 588/204/82
f 567/225/85 566/226/85 586/206/82 587/205/82
f 566/226/85 565/227/85 585/207/82 586/206/82
f 565/227/85 564/228/85 584/208/82 585/207/82
f 564/228/85 563/229/85 583/209/82 584/208/82
f 563/229/85 562/230/85 582/210/82 583/209/82
f 562/230/85 561/231/85 581/211/82 582/210/82
f 561/231/85 560/232/85 580/212/82 581/211/82
f 560/232/85 559/233/85 579/213/82 580/212/82
f 559/233/85 558/234/85 578/214/82 579/213/82
f 558/234/85 557/235/85 577/215/82 578/214/82
f 557/235/85 556/236/85 576/216/82 577/215/82
f 556/236/85 555/237/85 575/217/82 576/216/82
f 555/237/85 554/238/85 574/218/82 575/217/82
f 554/238/85 553/54/85 573/56/82 574/218/82
f 697/239/86 552/240/86 572/220/83 698/219/83
f 552/240/87 551/241/87 571/221/84 572/220/84
f 551/241/88 550/242/88 570/222/85 571/221/85
f 550/242/88 549/243/88 569/223/85 570/222/85
f 549/243/88 548/244/88 568/224/85 569/223/85
f 548/244/88 547/245/88 567/225/85 568/224/85
f 547/245/88 546/246/88 566/226/85 567/225/85
f 546/246/88 545/247/88 565/227/85 566/226/85
f 545/247/88 544/248/88 564/228/85 565/227/85
f 544/248/88 543/249/88 563/229/85 564/228/85
f 543/249/88 542/250/88 562/230/85 563/229/85
f 542/250/88 541/251/88 561/231/85 562/230/85
f 541/251/88 540/252/88 560/232/85 561/231/85
f 540/252/88 539/253/88 559/233/85 560/232/85
f 539/253/88 538/254/88 558/234/85 559/233/85
f 538/254/88 537/255/88 557/235/85 558/234/85
f 537/255/88 536/256/88 556/236/85 557/235/85
f 536/256/88 535/257/88 555/237/85 556/236/85
f 535/257/88 534/258/88 554/238/85 555/237/85
f 534/258/88 533/52/88 553/54/85 554/238/85
f 696/259/89 532/260/89 552/240/86 697/239/86
f 532/260/90 531/261/90 551/241/87 552/240/87
f 531/261/91 530/262/91 550/242/88 551/241/88
f 530/262/91 529/263/91 549/243/88 550/242/88
f 529/263/91 528/264/91 548/244/88 549/243/88
f 528/264/91 527/265/91 547/245/88 548/244/88
f 527/265/91 526/266/91 546/246/88 547/245/88
f 526/266/91 525/267/91 545/247/88 546/246/88
f 525/267/91 524/268/91 544/248/88 545/247/88
f 524/268/91 523/269/91 543/249/88 544/248/88
f 523/269/91 522/270/91 542/250/88 543/249/88
f 522/270/91 521/271/91 541/251/88 542/250/88
f 521/271/91 520/272/91 540/252/88 541/251/88
f 520/272/91 519/273/91 539/253/88 540/252/88
f 519/273/91 518/274/91 538/254/88 539/253/88
f 518/274/91 517/275/91 537/255/88 538/254/88
f 517/275/91 516/276/91 536/256/88 537/255/88
f 516/276/91 515/277/91 535/257/88 536/256/88
f 515/277/91 514/278/91 534/258/88 535/257/88
f 514/278/91 513/50/91 533/52/88 534/258/88
f 695/279/92 512/280/93 532/260/89 696/259/89
f 512/280/94 511/281/94 531/261/90 532/260/90
f 511/281/95 510/282/95 530/262/91 531/261/91
f 510/282/95 509/283/95 529/263/91 530/262/91
f 509/283/95 508/284/95 528/264/91 529/263/91
f 508/284/95 507/285/95 527/265/91 528/264/91
f 507/285/95 506/286/95 526/266/91 527/265/91
f 506/286/95 505/287/95 525/267/91 526/266/91
f 505/287/95 504/288/95 524/268/91 525/267/91
f 504/288/95 503/289/95 523/269/91 524/268/91
f 503/289/95 502/290/95 522/270/91 523/269/91
f 502/290/95 501/291/95 521/271/91 522/270/91
f 501/291/95 500/292/95 520/272/91 521/271/91
f 500/292/95 499/293/95 519/273/91 520/272/91
f 499/293/95 498/294/95 518/274/91 519/273/91
f 498/294/95 497/295/95 517/275/91 518/274/91
f 497/295/95 496/296/95 516/276/91 517/275/91
f 496/296/95 495/297/95 515/277/91 516/276/91
f 495/297/95 494/298/95 514/278/91 515/277/91
f 494/298/95 493/48/95 513/50/91 514/278/91
f 694/299/96 492/300/96 512/280/93 695/279/92
f 492/300/97 491/301/97 511/281/94 512/280/94
f 491/301/98 490/302/98 510/282/95 511/281/95
f 490/302/98 489/303/98 509/283/95 510/282/95
f 489/303/98 488/304/98 508/284/95 509/283/95
f 488/304/98 487/305/98 507/285/95 508/284/95
f 487/305/98 486/306/98 506/286/95 507/285/95
f 486/306/98 485/307/98 505/287/95 506/286/95
f 485/307/98 484/308/98 504/288/95 505/287/95
f 484/308/98 483/309/98 503/289/95 504/288/95
f 483/309/98 482/310/98 502/290/95 503/289/95
f 482/310/98 481/311/98 501/291/95 502/290/95
f 481/311/98 480/312/98 500/292/95 501/291/95
f 480/312/98 479/313/98 499/293/95 500/292/95
f 479/313/98 478/314/98 498/294/95 499/293/95
f 478/314/98 477/315/98 497/295/95 498/294/95
f 477/315/98 476/316/98 496/296/95 497/295/95
f 476/316/98 475/317/98 495/297/95 496/296/95
f 475/317/98 474/318/98 494/298/95 495/297/95
f 474/318/98 473/46/98 493/48/95 494/298/95
f 693/319/99 472/320/100 492/300/96 694/299/96
f 472/320/101 471/321/101 491/301/97 492/300/97
f 471/321/102 470/322/102 490/302/98 491/301/98
f 470/322/102 469/323/102 489/303/98 490/302/98
f 469/323/102 468/324/102 488/304/98 489/303/98
f 468/324/102 467/325/102 487/305/98 488/304/98
f 467/325/102 466/326/102 486/306/98 487/305/98
f 466/326/102 465/327/102 485/307/98 486/306/98
f 465/327/102 464/328/102 484/308/98 485/307/98
f 464/328/102 463/329/102 483/309/98 484/308/98
f 463/329/102 462/330/102 482/310/98 483/309/98
f 462/330/102 461/331/102 481/311/98 482/310/98
f 461/331/102 460/332/102 480/312/98 481/311/98
f 460/332/102 459/333/102 479/313/98 480/312/98
f 459/333/102 458/334/102 478/314/98 479/313/98
f 458/334/102 457/335/102 477/315/98 478/314/98
f 457/335/102 456/336/102 476/316/98 477/315/98
f 456/336/102 455/337/102 475/317/98 476/316/98
f 455/337/102 454/338/102 474/318/98 475/317/98
f 454/338/102 453/44/102 473/46/98 474/318/98
f 692/339/103 452/340/103 472/320/100 693/319/99
f 452/340/104 451/341/104 471/321/101 472/320/101
f 451/341/105 450/342/105 470/322/102 471/321/102
f 450/342/105 449/343/105 469/323/102 470/322/102
f 449/343/105 448/344/105 468/324/102 469/323/102
f 448/344/105 447/345/105 467/325/102 468/324/102
f 447/345/105 446/346/105 466/326/102 467/325/102
f 446/346/105 445/347/105 465/327/102 466/326/102
f 445/347/105 444/348/105 464/328/102 465/327/102
f 444/348/105 443/349/105 463/329/102 464/328/102
f 443/349/105 442/350/105 462/330/102 463/329/102
f 442/350/105 441/351/105 461/331/102 462/330/102
f 441/351/105 440/352/105 460/332/102 461/331/102
f 440/352/105 439/353/105 459/333/102 460/332/102
f 439/353/105 438/354/105 458/334/102 459/333/102
f 438/354/105 437/355/105 457/335/102 458/334/102
f 437/355/105 436/356/105 456/336/102 457/335/102
f 436/356/105 435/357/105 455/337/102 456/336/102
f 435/357/105 434/358/105 454/338/102 455/337/102
f 434/358/105 433/42/105 453/44/102 454/338/102
f 691/359/106 432/360/106 452/340/103 692/339/103
f 432/360/107 431/361/107 451/341/104 452/340/104
f 431/361/108 430/362/108 450/342/105 451/341/105
f 430/362/108 429/363/108 449/343/105 450/342/105
f 429/363/108 428/364/108 448/344/105 449/343/105
f 428/364/108 427/365/108 447/345/105 448/344/105
f 427/365/108 426/366/108 446/346/105 447/345/105
f 426/366/108 425/367/108 445/347/105 446/346/105
f 425/367/108 424/368/108 444/348/105 445/347/105
f 424/368/108 423/369/108 443/349/105 444/348/105
f 423/369/108 422/370/108 442/350/105 443/349/105
f 422/370/108 421/371/108 441/351/105 442/350/105
f 421/371/108 420/372/108 440/352/105 441/351/105
f 420/372/108 419/373/108 439/353/105 440/352/105
f 419/373/108 418/374/108 438/354/105 439/353/105
f 418/374/108 417/375/108 437/355/105 438/354/105
f 417/375/108 416/376/108 436/356/105 437/355/105
f 416/376/108 415/377/108 435/357/105 436/356/105
f 415/377/108 414/378/108 434/358/105 435/357/105
f 414/378/108 413/40/108 433/42/105 434/358/105
f 690/379/109 412/380/109 432/360/106 691/359/106
f 412/380/110 411/381/110 431/361/107 432/360/107
f 411/381/111 410/382/111 430/362/108 431/361/108
f 410/382/111 409/383/111 429/363/108 430/362/108
f 409/383/111 408/384/111 428/364/108 429/363/108
f 408/384/111 407/385/111 427/365/108 428/364/108
f 407/385/111 406/386/111 426/366/108 427/365/108
f 406/386/111 405/387/111 425/367/108 426/366/108
f 405/387/111 404/388/111 424/368/108 425/367/108
f 404/388/111 403/389/111 423/369/108 424/368/108
f 403/389/111 402/390/111 422/370/108 423/369/108
f 402/390/111 401/391/111 421/371/108 422/370/108
f 401/391/111 400/392/111 420/372/108 421/371/108
f 400/392/111 399/393/111 419/373/108 420/372/108
f 399/393/111 398/394/111 418/374/108 419/373/108
f 398/394/111 397/395/111 417/375/108 418/374/108
f 397/395/111 396/396/111 416/376/108 417/375/108
f 396/396/111 395/397/111 415/377/108 416/376/108
f 395/397/111 394/398/111 414/378/108 415/377/108
f 394/398/111 393/38/111 413/40/108 414/378/108
f 689/399/112 392/400/112 412/380/109 690/379/109
f 392/400/113 391/401/113 411/381/110 412/380/110
f 391/401/114 390/402/114 410/382/111 411/381/111
f 390/402/114 389/403/114 409/383/111 410/382/111
f 389/403/114 388/404/114 408/384/111 409/383/111
f 388/404/114 387/405/114 407/385/111 408/384/111
f 387/405/114 386/406/114 406/386/111 407/385/111
f 386/406/114 385/407/114 405/387/111 406/386/111
f 385/407/114 384/408/114 404/388/111 405/387/111
f 384/408/114 383/409/114 403/389/111 404/388/111
f 383/409/114 382/410/114 402/390/111 403/389/111
f 382/410/114 381/411/114 401/391/111 402/390/111
f 381/411/114 380/412/114 400/392/111 401/391/111
f 380/412/114 379/413/114 399/393/111 400/392/111
f 379/413/114 378/414/114 398/394/111 399/393/111
f 378/414/114 377/415/114 397/395/111 398/394/111
f 377/415/114 376/416/114 396/396/111 397/395/111
f 376/416/114 375/417/114 395/397/111 396/396/111
f 375/417/114 374/418/114 394/398/111 395/397/111
f 374/418/114 373/36/114 393/38/111 394/398/111
f 688/419/115 372/420/115 392/400/112 689/399/112
f 372/420/116 371/421/116 391/401/113 392/400/113
f 371/421/117 370/422/117 390/402/114 391/401/114
f 370/422/117 369/423/117 389/403/114 390/402/114
f 369/423/117 368/424/117 388/404/114 389/403/114
f 368/424/117 367/425/117 387/405/114 388/404/114
f 367/425/117 366/426/117 386/406/114 387/405/114
f 366/426/117 365/427/117 385/407/114 386/406/114
f 365/427/117 364/428/117 384/408/114 385/407/114
f 364/428/117 363/429/117 383/409/114 384/408/114
f 363/429/117 362/430/117 382/410/114 383/409/114
f 362/430/117 361/431/117 381/411/114 382/410/114
f 361/431/117 360/432/117 380/412/114 381/411/114
f 360/432/117 359/433/117 379/413/114 380/412/114
f 359/433/117 358/434/117 378/414/114 379/413/114
f 358/434/117 357/435/117 377/415/114 378/414/114
f 357/435/117 356/436/117 376/416/114 377/415/114
f 356/436/117 355/437/117 375/417/114 376/416/114
f 355/437/117 354/438/117 374/418/114 375/417/114
f 354/438/117 353/34/117 373/36/114 374/418/114
f 687/439/118 352/440/118 372/420/115 688/419/115
f 352/440/119 351/441/119 371/421/116 372/420/116
f 351/441/120 350/442/120 370/422/117 371/421/117
f 350/442/120 349/443/120 369/423/117 370/422/117
f 349/443/120 348/444/120 368/424/117 369/423/117
f 348/444/120 347/445/120 367/425/117 368/424/117
f 347/445/120 346/446/120 366/426/117 367/425/117
f 346/446/120 345/447/120 365/427/117 366/426/117
f 345/447/120 344/448/120 364/428/117 365/427/117
f 344/448/120 343/449/120 363/429/117 364/428/117
f 343/449/120 342/450/120 362/430/117 363/429/117
f 342/450/120 341/451/120 361/431/117 362/430/117
f 341/451/120 340/452/120 360/432/117 361/431/117
f 340/452/120 339/453/120 359/433/117 360/432/117
f 339/453/120 338/454/120 358/434/117 359/433/117
f 338/454/120 337/455/120 357/435/117 358/434/117
f 337/455/120 336/456/120 356/436/117 357/435/117
f 336/456/120 335/457/120 355/437/117 356/436/117
f 335/457/120 334/458/120 354/438/117 355/437/117
f 334/458/120 333/32/120 353/34/117 354/438/117
f 686/459/121 332/460/121 352/440/118 687/439/118
f 332/460/122 331/461/122 351/441/119 352/440/119
f 331/461/123 330/462/123 350/442/120 351/441/120
f 330/462/123 329/463/123 349/443/120 350/442/120
f 329/463/123 328/464/123 348/444/120 349/443/120
f 328/464/123 327/465/123 347/445/120 348/444/120
f 327/465/123 326/466/123 346/446/120 347/445/120
f 326/466/123 325/467/123 345/447/120 346/446/120
f 325/467/123 324/468/123 344/448/120 345/447/120
f 324/468/123 323/469/123 343/449/120 344/448/120
f 323/469/123 322/470/123 342/450/120 343/449/120
f 322/470/123 321/471/123 341/451/120 342/450/120
f 321/471/123 320/472/123 340/452/120 341/451/120
f 320/472/123 319/473/123 339/453/120 340/452/120
f 319/473/123 318/474/123 338/454/120 339/453/120
f 318/474/123 317/475/123 337/455/120 338/454/120
f 317/475/123 316/476/123 336/456/120 337/455/120
f 316/476/123 315/477/123 335/457/120 336/456/120
f 315/477/123 314/478/123 334/458/120 335/457/120
f 314/478/123 313/30/123 333/32/120 334/458/120
f 685/479/124 312/480/124 332/460/121 686/459/121
f 312/480/125 311/481/125 331/461/122 332/460/122
f 311/481/126 310/482/126 330/462/123 331/461/123
f 310/482/126 309/483/126 329/463/123 330/462/123
f 309/483/126 308/484/126 328/464/123 329/463/123
f 308/484/126 307/485/126 327/465/123 328/464/123
f 307/485/126 306/486/126 326/466/123 327/465/123
f 306/486/126 305/487/126 325/467/123 326/466/123
f 305/487/126 304/488/126 324/468/123 325/467/123
f 304/488/126 303/489/126 323/469/123 324/468/123
f 303/489/126 302/490/126 322/470/123 323/469/123
f 302/490/126 301/491/126 321/471/123 322/470/123
f 301/491/126 300/492/126 320/472/123 321/471/123
f 300/492/126 299/493/126 319/473/123 320/472/123
f 299/493/126 298/494/126 318/474/123 319/473/123
f 298/494/126 297/495/126 317/475/123 318/474/123
f 297/495/126 296/496/126 316/476/123 317/475/123
f 296/496/126 295/497/126 315/477/123 316/476/123
f 295/497/126 294/498/126 314/478/123 315/477/123
f 294/498/126 293/28/126 313/30/123 314/478/123
f 684/499/127 292/500/127 312/480/124 685/479/124
f 292/500/128 291/501/128 311/481/125 312/480/125
f 291/501/129 290/502/129 310/482/126 311/481/126
f 290/502/129 289/503/129 309/483/126 310/482/126
f 289/503/129 288/504/129 308/484/126 309/483/126
f 288/504/129 287/505/129 307/485/126 308/484/126
f 287/505/129 286/506/129 306/486/126 307/485/126
f 286/506/129 285/507/129 305/487/126 306/486/126
f 285/507/129 284/508/129 304/488/126 305/487/126
f 284/508/129 283/509/129 303/489/126 304/488/126
f 283/509/129 282/510/129 302/490/126 303/489/126
f 282/510/129 281/511/129 301/491/126 302/490/126
f 281/511/129 280/512/129 300/492/126 301/491/126
f 280/512/129 279/513/129 299/493/126 300/492/126
f 279/513/129 278/514/129 298/494/126 299/493/126
f 278/514/129 277/515/129 297/495/126 298/494/126
f 277/515/129 276/516/129 296/496/126 297/495/126
f 276/516/129 275/517/129 295/497/126 296/496/126
f 275/517/129 274/518/129 294/498/126 295/497/126
f 274/518/129 273/26/129 293/28/126 294/498/126
f 683/519/130 272/520/131 292/500/127 684/499/127
f 272/520/132 271/521/132 291/501/128 292/500/128
f 271/521/133 270/522/133 290/502/129 291/501/129
f 270/522/133 269/523/133 289/503/129 290/502/129
f 269/523/133 268/524/133 288/504/129 289/503/129
f 268/524/133 267/525/133 287/505/129 288/504/129
f 267/525/133 266/526/133 286/506/129 287/505/129
f 266/526/133 265/527/133 285/507/129 286/506/129
f 265/527/133 264/528/133 284/508/129 285/507/129
f 264/528/133 263/529/133 283/509/129 284/508/129
f 263/529/133 262/530/133 282/510/129 283/509/129
f 262/530/133 261/531/133 281/511/129 282/510/129
f 261/531/133 260/532/133 280/512/129 281/511/129
f 260/532/133 259/533/133 279/513/129 280/512/129
f 259/533/133 258/534/133 278/514/129 279/513/129
f 258/534/133 257/535/133 277/515/129 278/514/129
f 257/535/133 256/536/133 276/516/129 277/515/129
f 256/536/133 255/537/133 275/517/129 276/516/129
f 255/537/133 254/538/133 274/518/129 275/517/129
f 254/538/133 253/24/133 273/26/129 274/518/129
f 682/539/134 252/540/134 272/520/131 683/519/130
f 252/540/135 251/541/135 271/521/132 272/520/132
f 251/541/136 250/542/136 270/522/133 271/521/133
f 250/542/136 249/543/136 269/523/133 270/522/133
f 249/543/136 248/544/136 268/524/133 269/523/133
f 248/544/136 247/545/136 267/525/133 268/524/133
f 247/545/136 246/546/136 266/526/133 267/525/133
f 246/546/136 245/547/136 265/527/133 266/526/133
f 245/547/136 244/548/136 264/528/133 265/527/133
f 244/548/136 243/549/136 263/529/133 264/528/133
f 243/549/136 242/550/136 262/530/133 263/529/133
f 242/550/136 241/551/136 261/531/133 262/530/133
f 241/551/136 240/552/136 260/532/133 261/531/133
f 240/552/136 239/553/136 259/533/133 260/532/133
f 239/553/136 238/554/136 258/534/133 259/533/133
f 238/554/136 237/555/136 257/535/133 258/534/133
f 237/555/136 236/556/136 256/536/133 257/535/133
f 236/556/136 235/557/136 255/537/133 256/536/133
f 235/557/136 234/558/136 254/538/133 255/537/133
f 234/558/136 233/22/136 253/24/133 254/538/133
f 681/559/137 232/560/138 252/540/134 682/539/134
f 232/560/139 231/561/139 251/541/135 252/540/135
f 231/561/140 230/562/140 250/542/136 251/541/136
f 230/562/140 229/563/140 249/543/136 250/542/136
f 229/563/140 228/564/140 248/544/136 249/543/136
f 228/564/140 227/565/140 247/545/136 248/544/136
f 227/565/140 226/566/140 246/546/136 247/545/136
f 226/566/140 225/567/140 245/547/136 246/546/136
f 225/567/140 224/568/140 244/548/136 245/547/136
f 224/568/140 223/569/140 243/549/136 244/548/136
f 223/569/140 222/570/140 242/550/136 243/549/136
f 222/570/140 221/571/140 241/551/136 242/550/136
f 221/571/140 220/572/140 240/552/136 241/551/136
f 220/572/140 219/573/140 239/553/136 240/552/136
f 219/573/140 218/574/140 238/554/136 239/553/136
f 218/574/140 217/575/140 237/555/136 238/554/136
f 217/575/140 216/576/140 236/556/136 237/555/136
f 216/576/140 215/577/140 235/557/136 236/556/136
f 215/577/140 214/578/140 234/558/136 235/557/136
f 214/578/140 213/20/140 233/22/136 234/558/136
f 680/579/141 212/580/141 232/560/138 681/559/137
f 212/580/142 211/581/142 231/561/139 232/560/139
f 211/581/143 210/582/143 230/562/140 231/561/140
f 210/582/143 209/583/143 229/563/140 230/562/140
f 209/583/143 208/584/143 228/564/140 229/563/140
f 208/584/143 207/585/143 227/565/140 228/564/140
f 207/585/143 206/586/143 226/566/140 227/565/140
f 206/586/143 205/587/143 225/567/140 226/566/140
f 205/587/143 204/588/143 224/568/140 225/567/140
f 204/588/143 203/589/143 223/569/140 224/568/140
f 203/589/143 202/590/143 222/570/140 223/569/140
f 202/590/143 201/591/143 221/571/140 222/570/140
f 201/591/143 200/592/143 220/572/140 221/571/140
f 200/592/143 199/593/143 219/573/140 220/572/140
f 199/593/143 198/594/143 218/574/140 219/573/140
f 198/594/143 197/595/143 217/575/140 218/574/140
f 197/595/143 196/596/143 216/576/140 217/575/140
f 196/596/143 195/597/143 215/577/140 216/576/140
f 195/597/143 194/598/143 214/578/140 215/577/140
f 194/598/143 193/18/143 213/20/140 214/578/140
f 679/599/144 192/600/144 212/580/141 680/579/141
f 192/600/145 191/601/145 211/581/142 212/580/142
f 191/601/146 190/602/146 210/582/143 211/581/143
f 190/602/146 189/603/146 209/583/143 210/582/143
f 189/603/146 188/604/146 208/584/143 209/583/143
f 188/604/146 187/605/146 207/585/143 208/584/143
f 187/605/146 186/606/146 206/586/143 207/585/143
f 186/606/146 185/607/146 205/587/143 206/586/143
f 185/607/146 184/608/146 204/588/143 205/587/143
f 184/608/146 183/609/146 203/589/143 204/588/143
f 183/609/146 182/610/146 202/590/143 203/589/143
f 182/610/146 181/611/146 201/591/143 202/590/143
f 181/611/146 180/612/146 200/592/143 201/591/143
f 180/612/146 179/613/146 199/593/143 200/592/143
f 179/613/146 178/614/146 198/594/143 199/593/143
f 178/614/146 177/615/146 197/595/143 198/594/143
f 177/615/146 176/616/146 196/596/143 197/595/143
f 176/616/146 175/617/146 195/597/143 196/596/143
f 175/617/146 174/618/146 194/598/143 195/597/143
f 174/618/146 173/16/146 193/18/143 194/598/143
f 678/619/147 172/620/147 192/600/144 679/599/144
f 172/620/148 171/621/148 191/601/145 192/600/145
f 171/621/149 170/622/149 190/602/146 191/601/146
f 170/622/149 169/623/149 189/603/146 190/602/146
f 169/623/149 168/624/149 188/604/146 189/603/146
f 168/624/149 167/625/149 187/605/146 188/604/146
f 167/625/149 166/626/149 186/606/146 187/605/146
f 166/626/149 165/627/149 185/607/146 186/606/146
f 165/627/149 164/628/149 184/608/146 185/607/146
f 164/628/149 163/629/149 183/609/146 184/608/146
f 163/629/149 162/630/149 182/610/146 183/609/146
f 162/630/149 161/631/149 181/611/146 182/610/146
f 161/631/149 160/632/149 180/612/146 181/611/146
f 160/632/149 159/633/149 179/613/146 180/612/146
f 159/633/149 158/634/149 178/614/146 179/613/146
f 158/634/149 157/635/149 177/615/146 178/614/146
f 157/635/149 156/636/149 176/616/146 177/615/146
f 156/636/149 155/637/149 175/617/146 176/616/146
f 155/637/149 154/638/149 174/618/146 175/617/146
f 154/638/149 153/14/149 173/16/146 174/618/146
f 677/639/150 152/640/150 172/620/147 678/619/147
f 152/640/151 151/641/151 171/621/148 172/620/148
f 151/641/152 150/642/152 170/622/149 171/621/149
f 150/642/152 149/643/152 169/623/149 170/622/149
f 149/643/152 148/644/152 168/624/149 169/623/149
f 148/644/152 147/645/152 167/625/149 168/624/149
f 147/645/152 146/646/152 166/626/149 167/625/149
f 146/646/152 145/647/152 165/627/149 166/626/149
f 145/647/152 144/648/152 164/628/149 165/627/149
f 144/648/152 143/649/152 163/629/149 164/628/149
f 143/649/152 142/650/152 162/630/149 163/629/149
f 142/650/152 141/651/152 161/631/149 162/630/149
f 141/651/152 140/652/152 160/632/149 161/631/149
f 140/652/152 139/653/152 159/633/149 160/632/149
f 139/653/152 138/654/152 158/634/149 159/633/149
f 138/654/152 137/655/152 157/635/149 158/634/149
f 137/655/152 136/656/152 156/636/149 157/635/149
f 136/656/152 135/657/152 155/637/149 156/636/149
f 135/657/152 134/658/152 154/638/149 155/637/149
f 134/658/152 133/12/152 153/14/149 154/638/149
f 676/659/153 132/660/153 152/640/150 677/639/150
f 132/660/154 131/661/154 151/641/151 152/640/151
f 131/661/155 130/662/155 150/642/152 151/641/152
f 130/662/155 129/663/155 149/643/152 150/642/152
f 129/663/155 128/664/155 148/644/152 149/643/152
f 128/664/155 127/665/155 147/645/152 148/644/152
f 127/665/155 126/666/155 146/646/152 147/645/152
f 126/666/155 125/667/155 145/647/152 146/646/152
f 125/667/155 124/668/155 144/648/152 145/647/152
f 124/668/155 123/669/155 143/649/152 144/648/152
f 123/669/155 122/670/155 142/650/152 143/649/152
f 122/670/155 121/671/155 141/651/152 142/650/152
f 121/671/155 120/672/155 140/652/152 141/651/152
f 120/672/155 119/673/155 139/653/152 140/652/152
f 119/673/155 118/674/155 138/654/152 139/653/152
f 118/674/155 117/675/155 137/655/152 138/654/152
f 117/675/155 116/676/155 136/656/152 137/655/152
f 116/676/155 115/677/155 135/657/152 136/656/152
f 115/677/155 114/678/155 134/658/152 135/657/152
f 114/678/155 113/10/155 133/12/152 134/658/152
f 675/679/156 112/680/156 132/660/153 676/659/153
f 112/680/157 111/681/157 131/661/154 132/660/154
f 111/681/158 110/682/158 130/662/155 131/661/155
f 110/682/158 109/683/158 129/663/155 130/662/155
f 109/683/158 108/684/158 128/664/155 129/663/155
f 108/684/158 107/685/158 127/665/155 128/664/155
f 107/685/158 106/686/158 126/666/155 127/665/155
f 106/686/158 105/687/158 125/667/155 126/666/155
f 105/687/158 104/688/158 124/668/155 125/667/155
f 104/688/158 103/689/158 123/669/155 124/668/155
f 103/689/158 102/690/158 122/670/155 123/669/155
f 102/690/158 101/691/158 121/671/155 122/670/155
f 101/691/158 100/692/158 120/672/155 121/671/155
f 100/692/158 99/693/158 119/673/155 120/672/155
f 99/693/158 98/694/158 118/674/155 119/673/155
f 98/694/158 97/695/158 117/675/155 118/674/155
f 97/695/158 96/696/158 116/676/155 117/675/155
f 96/696/158 95/697/158 115/677/155 116/676/155
f 95/697/158 94/698/158 114/678/155 115/677/155
f 94/698/158 93/8/158 113/10/155 114/678/155
f 674/699/159 92/700/159 112/680/156 675/679/156
f 92/700/160 91/701/160 111/681/157 112/680/157
f 91/701/161 90/702/161 110/682/158 111/681/158
f 90/702/161 89/703/161 109/683/158 110/682/158
f 89/703/161 88/704/161 108/684/158 109/683/158
f 88/704/161 87/705/161 107/685/158 108/684/158
f 87/705/161 86/706/161 106/686/158 107/685/158
f 86/706/161 85/707/161 105/687/158 106/686/158
f 85/707/161 84/708/161 104/688/158 105/687/158
f 84/708/161 83/709/161 103/689/158 104/688/158
f 83/709/161 82/710/161 102/690/158 103/689/158
f 82/710/161 81/711/161 101/691/158 102/690/158
f 81/711/161 80/712/161 100/692/158 101/691/158
f 80/712/161 79/713/161 99/693/158 100/692/158
f 79/713/161 78/714/161 98/694/158 99/693/158
f 78/714/161 77/715/161 97/695/158 98/694/158
f 77/715/161 76/716/161 96/696/158 97/695/158
f 76/716/161 75/717/161 95/697/158 96/696/158
f 75/717/161 74/718/161 94/698/158 95/697/158
f 74/718/161 73/6/161 93/8/158 94/698/158
f 673/719/162 72/720/162 92/700/159 674/699/159
f 72/720/163 71/721/163 91/701/160 92/700/160
f 71/721/164 70/722/164 90/702/161 91/701/161
f 70/722/164 69/723/164 89/703/161 90/702/161
f 69/723/164 68/724/164 88/704/161 89/703/161
f 68/724/164 67/725/164 87/705/161 88/704/161
f 67/725/164 66/726/164 86/706/161 87/705/161
f 66/726/164 65/727/164 85/707/161 86/706/161
f 65/727/164 64/728/164 84/708/161 85/707/161
f 64/728/164 63/729/164 83/709/161 84/708/161
f 63/729/164 62/730/164 82/710/161 83/709/161
f 62/730/164 61/731/164 81/711/161 82/710/161
f 61/731/164 60/732/164 80/712/161 81/711/161
f 60/732/164 59/733/164 79/713/161 80/712/161
f 59/733/164 58/734/164 78/714/161 79/713/161
f 58/734/164 57/735/164 77/715/161 78/714/161
f 57/735/164 56/736/164 76/716/161 77/715/161
f 56/736/164 55/737/164 75/717/161 76/716/161
f 55/737/164 54/738/164 74/718/161 75/717/161
f 54/738/164 53/4/164 73/6/161 74/718/161
f 704/739/66 33/740/66 72/720/162 673/719/162
f 33/740/68 34/741/68 71/721/163 72/720/163
f 34/741/70 35/742/70 70/722/164 71/721/164
f 35/742/70 36/743/70 69/723/164 70/722/164
f 36/743/70 37/744/70 68/724/164 69/723/164
f 37/744/70 38/745/70 67/725/164 68/724/164
f 38/745/70 39/746/70 66/726/164 67/725/164
f 39/746/70 40/747/70 65/727/164 66/726/164
f 40/747/70 41/748/70 64/728/164 65/727/164
f 41/748/70 42/749/70 63/729/164 64/728/164
f 42/749/70 43/750/70 62/730/164 63/729/164
f 43/750/70 44/751/70 61/731/164 62/730/164
f 44/751/70 45/752/70 60/732/164 61/731/164
f 45/752/70 46/753/70 59/733/164 60/732/164
f 46/753/70 47/754/70 58/734/164 59/733/164
f 47/754/70 48/755/70 57/735/164 58/734/164
f 48/755/70 49/756/70 56/736/164 57/735/164
f 49/756/70 50/757/70 55/737/164 56/736/164
f 50/757/70 51/758/70 54/738/164 55/737/164
f 51/758/70 52/1/70 53/4/164 54/738/164
