# Blender 5.1.1
# www.blender.org
mtllib fins.mtl
o Plane.001
v 1.012534 -4.190243 -0.072511
v 1.037534 -4.215243 -0.072511
v 1.037534 -4.190243 -0.047511
v 1.015874 -4.202727 -0.072511
v 1.015874 -4.190243 -0.060027
v 1.019118 -4.202199 -0.060556
v 1.037534 -4.211904 -0.060027
v 1.025051 -4.211904 -0.072511
v 1.025579 -4.208659 -0.060556
v 1.025051 -4.190243 -0.050851
v 1.037534 -4.202727 -0.050851
v 1.025579 -4.202199 -0.054095
v 2.987534 -4.215243 -0.072511
v 2.998106 -4.194827 -0.072511
v 2.964253 -4.190243 -0.047511
v 2.999709 -4.213354 -0.072511
v 2.982805 -4.211065 -0.060027
v 2.994524 -4.209263 -0.060556
v 2.991964 -4.193377 -0.060027
v 3.003589 -4.205860 -0.072511
v 2.997256 -4.203987 -0.060556
v 2.974260 -4.201889 -0.050851
v 2.979539 -4.191694 -0.050851
v 2.988508 -4.202802 -0.054095
v 1.012534 -2.240243 -0.072511
v 1.037534 -2.240243 -0.047511
v 1.037534 -2.215243 -0.072511
v 1.015874 -2.240243 -0.060027
v 1.015874 -2.227760 -0.072511
v 1.019118 -2.228288 -0.060556
v 1.037534 -2.227760 -0.050851
v 1.025051 -2.240243 -0.050851
v 1.025579 -2.228288 -0.054095
v 1.025051 -2.218583 -0.072511
v 1.037534 -2.218583 -0.060027
v 1.025579 -2.221828 -0.060556
v 1.613541 -2.235660 -0.072511
v 1.574113 -2.215243 -0.072511
v 1.586168 -2.240243 -0.047511
v 1.603431 -2.224627 -0.072511
v 1.609450 -2.237110 -0.060027
v 1.599745 -2.226500 -0.060556
v 1.575289 -2.219422 -0.060027
v 1.588958 -2.217133 -0.072511
v 1.589556 -2.221224 -0.060556
v 1.599403 -2.238793 -0.050851
v 1.579714 -2.228598 -0.050851
v 1.592671 -2.227684 -0.054095
v 1.012534 -4.190243 -0.072511
v 1.037534 -4.190243 -0.097511
v 1.037534 -4.215243 -0.072511
v 1.015874 -4.190243 -0.084995
v 1.015874 -4.202727 -0.072511
v 1.019118 -4.202199 -0.084466
v 1.037534 -4.202727 -0.094171
v 1.025051 -4.190243 -0.094171
v 1.025579 -4.202199 -0.090927
v 1.025051 -4.211904 -0.072511
v 1.037534 -4.211904 -0.084995
v 1.025579 -4.208659 -0.084466
v 2.987534 -4.215243 -0.072511
v 2.964253 -4.190243 -0.097511
v 2.998106 -4.194827 -0.072511
v 2.982805 -4.211065 -0.084995
v 2.999709 -4.213354 -0.072511
v 2.994524 -4.209263 -0.084466
v 2.979539 -4.191694 -0.094171
v 2.974260 -4.201889 -0.094171
v 2.988508 -4.202802 -0.090927
v 3.003589 -4.205860 -0.072511
v 2.991964 -4.193377 -0.084995
v 2.997256 -4.203987 -0.084466
v 1.012534 -2.240243 -0.072511
v 1.037534 -2.215243 -0.072511
v 1.037534 -2.240243 -0.097511
v 1.015874 -2.227760 -0.072511
v 1.015874 -2.240243 -0.084994
v 1.019118 -2.228288 -0.084466
v 1.037534 -2.218583 -0.084994
v 1.025051 -2.218583 -0.072511
v 1.025579 -2.221828 -0.084466
v 1.025051 -2.240243 -0.094171
v 1.037534 -2.227760 -0.094171
v 1.025579 -2.228288 -0.090927
v 1.613541 -2.235660 -0.072511
v 1.586168 -2.240243 -0.097511
v 1.574113 -2.215243 -0.072511
v 1.609450 -2.237110 -0.084994
v 1.603431 -2.224627 -0.072511
v 1.599745 -2.226500 -0.084466
v 1.579714 -2.228598 -0.094171
v 1.599403 -2.238793 -0.094171
v 1.592671 -2.227684 -0.090927
v 1.588958 -2.217133 -0.072511
v 1.575289 -2.219421 -0.084994
v 1.589556 -2.221224 -0.084466
vn -0.9318 -0.2566 0.2566
vn -0.6901 -0.6901 0.2178
vn -0.2566 -0.9318 0.2566
vn -0.2178 -0.6901 0.6901
vn -0.2566 -0.2566 0.9318
vn -0.6901 -0.2178 0.6901
vn -0.5773 -0.5774 0.5773
vn 0.1498 -0.9165 0.3709
vn 0.7806 -0.4042 0.4769
vn 0.8349 0.4066 0.3709
vn 0.5962 0.2595 0.7597
vn 0.2081 -0.1078 0.9722
vn 0.1322 -0.6367 0.7597
vn 0.5449 -0.2821 0.7896
vn -0.9318 0.2566 0.2566
vn -0.6901 0.2178 0.6901
vn -0.2566 0.2566 0.9318
vn -0.2178 0.6901 0.6901
vn -0.2566 0.9318 0.2566
vn -0.6901 0.6901 0.2178
vn -0.5773 0.5774 0.5773
vn 0.6975 0.6462 0.3098
vn 0.4427 0.8549 0.2704
vn 0.1251 0.9425 0.3098
vn 0.1172 0.7299 0.6734
vn 0.1941 0.3748 0.9066
vn 0.5285 0.5169 0.6734
vn 0.3827 0.7390 0.5545
vn -0.9318 -0.2566 -0.2566
vn -0.6901 -0.2178 -0.6901
vn -0.2566 -0.2566 -0.9318
vn -0.2178 -0.6901 -0.6901
vn -0.2566 -0.9318 -0.2566
vn -0.6901 -0.6901 -0.2178
vn -0.5773 -0.5774 -0.5773
vn 0.1498 -0.9165 -0.3709
vn 0.1322 -0.6367 -0.7597
vn 0.2081 -0.1078 -0.9722
vn 0.5962 0.2595 -0.7597
vn 0.8349 0.4066 -0.3709
vn 0.7806 -0.4042 -0.4769
vn 0.5449 -0.2821 -0.7896
vn -0.9318 0.2566 -0.2566
vn -0.6901 0.6901 -0.2178
vn -0.2566 0.9318 -0.2566
vn -0.2178 0.6901 -0.6901
vn -0.2566 0.2566 -0.9318
vn -0.6901 0.2178 -0.6901
vn -0.5773 0.5774 -0.5773
vn 0.6975 0.6462 -0.3098
vn 0.5285 0.5169 -0.6734
vn 0.1941 0.3748 -0.9066
vn 0.1172 0.7299 -0.6734
vn 0.1251 0.9425 -0.3098
vn 0.4427 0.8549 -0.2704
vn 0.3827 0.7390 -0.5545
vn -0.9660 -0.0000 0.2585
vn -0.7071 -0.0000 0.7071
vn -0.2585 -0.0000 0.9660
vn 0.0002 -0.9575 0.2884
vn 0.0003 -0.7070 0.7072
vn 0.0001 -0.2668 0.9638
vn 0.7744 0.5473 0.3174
vn 0.5775 0.4081 0.7071
vn 0.2251 0.1591 0.9612
vn 0.0007 0.9575 0.2883
vn 0.0011 0.7072 0.7070
vn 0.0002 0.2669 0.9637
vn -0.2585 -0.0000 -0.9660
vn -0.7071 -0.0000 -0.7071
vn -0.9660 -0.0000 -0.2585
vn 0.0001 -0.2668 -0.9638
vn 0.0003 -0.7070 -0.7072
vn 0.0002 -0.9575 -0.2884
vn 0.2251 0.1591 -0.9612
vn 0.5775 0.4081 -0.7071
vn 0.7744 0.5473 -0.3174
vn 0.0002 0.2669 -0.9637
vn 0.0011 0.7072 -0.7070
vn 0.0007 0.9575 -0.2883
vn -0.9779 -0.2090 -0.0000
vn -0.7504 -0.6610 -0.0000
vn -0.1037 -0.9946 -0.0000
vn 0.1687 -0.9857 -0.0000
vn 0.0871 -0.0463 0.9951
vn 0.6887 0.7251 -0.0000
vn -0.1242 0.9923 -0.0000
vn -0.7504 0.6610 -0.0000
vn -0.9522 0.3053 -0.0000
vn 0.1228 0.1490 0.9812
vn 0.0174 0.0301 0.9994
vn 0.0078 0.0740 0.9972
vn -1.0000 -0.0000 -0.0000
vn -0.0000 -0.0000 1.0000
vn -0.0000 -1.0000 -0.0000
vn 0.6937 0.7203 -0.0000
vn -0.0000 1.0000 -0.0000
vn -0.0000 -0.0000 -1.0000
vt 0.000000 0.012500
vt 0.000000 0.006258
vt 0.000000 0.006522
vt 0.000000 0.012500
vt 0.006258 0.000000
vt 0.006522 0.000000
vt 0.012500 0.000000
vt 0.013976 0.006258
vt 0.007696 0.006522
vt 0.014781 0.012500
vt 0.007740 0.012500
vt 0.987500 0.000000
vt 0.993587 0.000000
vt 0.990995 0.000000
vt 0.985135 0.000000
vt 1.000000 0.005237
vt 1.000000 0.007354
vt 1.000000 0.010208
vt 1.000000 0.012139
vt 0.991245 0.011775
vt 0.991963 0.006221
vt 0.983832 0.012500
vt 0.985004 0.006677
vt 0.000000 0.987500
vt 0.000000 0.987500
vt 0.000000 0.993478
vt 0.000000 0.993742
vt 0.017833 0.987500
vt 0.019481 0.993478
vt 0.037224 0.987500
vt 0.039152 0.993742
vt 0.042620 1.000000
vt 0.022239 1.000000
vt 0.042620 1.000000
vt 0.021338 1.000000
vt 1.000000 0.989792
vt 1.000000 0.995854
vt 1.000000 0.996097
vt 1.000000 0.990272
vt 0.982688 1.000000
vt 0.983707 1.000000
vt 0.957380 1.000000
vt 0.959385 1.000000
vt 0.958961 0.993323
vt 0.980184 0.993779
vt 0.960358 0.987500
vt 0.980319 0.988225
vt 0.000000 0.006258
vt 0.006258 0.000000
vt 0.993587 0.000000
vt 0.985004 0.006677
vt 0.991963 0.006221
vt 0.991245 0.011775
vt 1.000000 0.012139
vt 1.000000 0.007354
vt 1.000000 0.005237
vt 0.000000 0.987500
vt 0.000000 0.993478
vt 0.021338 1.000000
vt 0.042620 1.000000
vt 0.039152 0.993742
vt 0.019481 0.993478
vt 1.000000 0.990272
vt 1.000000 0.996098
vt 1.000000 0.995853
vt 0.980319 0.988225
vt 0.980184 0.993779
vt 0.958961 0.993323
vt 0.959386 1.000000
vt 0.983707 1.000000
vt 0.982688 1.000000
s 0
f 1/1/1 4/2/1 6/3/1 5/4/1
f 4/2/2 8/5/2 9/6/2 6/3/2
f 2/7/3 7/7/3 9/6/3 8/5/3
f 7/7/4 11/8/4 12/9/4 9/6/4
f 3/10/5 10/11/5 12/9/5 11/8/5
f 10/11/6 5/4/6 6/3/6 12/9/6
f 6/3/7 9/6/7 12/9/7
f 13/12/8 16/13/8 18/14/8 17/15/8
f 16/13/9 20/16/9 21/17/9 18/14/9
f 14/18/10 19/19/10 21/17/10 20/16/10
f 19/19/11 23/20/11 24/21/11 21/17/11
f 15/22/12 22/23/12 24/21/12 23/20/12
f 22/23/13 17/15/13 18/14/13 24/21/13
f 18/14/14 21/17/14 24/21/14
f 25/24/15 28/25/15 30/26/15 29/27/15
f 28/25/16 32/28/16 33/29/16 30/26/16
f 26/30/17 31/31/17 33/29/17 32/28/17
f 31/31/18 35/32/18 36/33/18 33/29/18
f 27/34/19 34/35/19 36/33/19 35/32/19
f 34/35/20 29/27/20 30/26/20 36/33/20
f 30/26/21 33/29/21 36/33/21
f 37/36/22 40/37/22 42/38/22 41/39/22
f 40/37/23 44/40/23 45/41/23 42/38/23
f 38/42/24 43/43/24 45/41/24 44/40/24
f 43/43/25 47/44/25 48/45/25 45/41/25
f 39/46/26 46/47/26 48/45/26 47/44/26
f 46/47/27 41/39/27 42/38/27 48/45/27
f 42/38/28 45/41/28 48/45/28
f 49/4/29 52/1/29 54/3/29 53/48/29
f 52/1/30 56/11/30 57/9/30 54/3/30
f 50/10/31 55/8/31 57/9/31 56/11/31
f 55/8/32 59/7/32 60/6/32 57/9/32
f 51/7/33 58/49/33 60/6/33 59/7/33
f 58/49/34 53/48/34 54/3/34 60/6/34
f 54/3/35 57/9/35 60/6/35
f 61/12/36 64/15/36 66/14/36 65/50/36
f 64/15/37 68/51/37 69/52/37 66/14/37
f 62/22/38 67/53/38 69/52/38 68/51/38
f 67/53/39 71/54/39 72/55/39 69/52/39
f 63/18/40 70/56/40 72/55/40 71/54/40
f 70/56/41 65/50/41 66/14/41 72/55/41
f 66/14/42 69/52/42 72/55/42
f 73/57/43 76/27/43 78/58/43 77/57/43
f 76/27/44 80/59/44 81/33/44 78/58/44
f 74/34/45 79/60/45 81/33/45 80/59/45
f 79/60/46 83/61/46 84/62/46 81/33/46
f 75/30/47 82/28/47 84/62/47 83/61/47
f 82/28/48 77/57/48 78/58/48 84/62/48
f 78/58/49 81/33/49 84/62/49
f 85/36/50 88/63/50 90/64/50 89/65/50
f 88/63/51 92/66/51 93/67/51 90/64/51
f 86/46/52 91/68/52 93/67/52 92/66/52
f 91/68/53 95/69/53 96/70/53 93/67/53
f 87/42/54 94/71/54 96/70/54 95/69/54
f 94/71/55 89/65/55 90/64/55 96/70/55
f 90/64/56 93/67/56 96/70/56
f 25/24/57 1/1/57 5/4/57 28/25/57
f 28/25/58 5/4/58 10/11/58 32/28/58
f 32/28/59 10/11/59 3/10/59 26/30/59
f 2/7/60 13/12/60 17/15/60 7/7/60
f 7/7/61 17/15/61 22/23/61 11/8/61
f 11/8/62 22/23/62 15/22/62 3/10/62
f 14/18/63 37/36/63 41/39/63 19/19/63
f 19/19/64 41/39/64 46/47/64 23/20/64
f 23/20/65 46/47/65 39/46/65 15/22/65
f 38/42/66 27/34/66 35/32/66 43/43/66
f 43/43/67 35/32/67 31/31/67 47/44/67
f 47/44/68 31/31/68 26/30/68 39/46/68
f 75/30/69 50/10/69 56/11/69 82/28/69
f 82/28/70 56/11/70 52/1/70 77/57/70
f 77/57/71 52/1/71 49/4/71 73/57/71
f 50/10/72 62/22/72 68/51/72 55/8/72
f 55/8/73 68/51/73 64/15/73 59/7/73
f 59/7/74 64/15/74 61/12/74 51/7/74
f 62/22/75 86/46/75 92/66/75 67/53/75
f 67/53/76 92/66/76 88/63/76 71/54/76
f 71/54/77 88/63/77 85/36/77 63/18/77
f 86/46/78 75/30/78 83/61/78 91/68/78
f 91/68/79 83/61/79 79/60/79 95/69/79
f 95/69/80 79/60/80 74/34/80 87/42/80
f 1/1/81 49/4/81 53/48/81 4/2/81
f 4/2/82 53/48/82 58/49/82 8/5/82
f 8/5/83 58/49/83 51/7/83 2/7/83
f 13/12/84 61/12/84 65/50/84 16/13/84
f 16/13/85 65/50/85 70/56/85 20/16/85
f 20/16/86 70/56/86 63/18/86 14/18/86
f 27/34/87 74/34/87 80/59/87 34/35/87
f 34/35/88 80/59/88 76/27/88 29/27/88
f 29/27/89 76/27/89 73/57/89 25/24/89
f 37/36/90 85/36/90 89/65/90 40/37/90
f 40/37/91 89/65/91 94/71/91 44/40/91
f 44/40/92 94/71/92 87/42/92 38/42/92
f 1/1/93 25/24/93 73/57/93 49/4/93
f 3/10/94 15/22/94 39/46/94 26/30/94
f 13/12/95 2/7/95 51/7/95 61/12/95
f 37/36/96 14/18/96 63/18/96 85/36/96
f 27/34/97 38/42/97 87/42/97 74/34/97
f 50/10/98 75/30/98 86/46/98 62/22/98
o Plane.002
v -0.999240 -4.190114 0.030748
v -1.024240 -4.215114 0.030605
v -1.024096 -4.190114 0.005605
v -1.002580 -4.202598 0.030729
v -1.002508 -4.190114 0.018246
v -1.005756 -4.202069 0.018755
v -1.024168 -4.211774 0.018121
v -1.011757 -4.211774 0.030676
v -1.012216 -4.208530 0.018718
v -1.011632 -4.190114 0.009017
v -1.024115 -4.202598 0.008945
v -1.012179 -4.202069 0.012258
v -2.974208 -4.215114 0.019394
v -2.984779 -4.194698 0.019333
v -2.950784 -4.190114 -0.005472
v -2.986382 -4.213225 0.019324
v -2.969407 -4.210936 0.006938
v -2.981129 -4.209134 0.007399
v -2.978566 -4.193247 0.006885
v -2.990263 -4.205731 0.019302
v -2.983860 -4.203857 0.007383
v -2.960809 -4.201759 -0.002190
v -2.966088 -4.191565 -0.002220
v -2.975075 -4.202673 0.000973
v -0.999240 -2.240114 0.030748
v -1.024096 -2.240114 0.005605
v -1.024240 -2.215114 0.030604
v -1.002508 -2.240114 0.018246
v -1.002580 -2.227631 0.030729
v -1.005756 -2.228159 0.018755
v -1.024115 -2.227631 0.008945
v -1.011632 -2.240114 0.009016
v -1.012179 -2.228159 0.012258
v -1.011757 -2.218454 0.030676
v -1.024168 -2.218454 0.018121
v -1.012216 -2.221698 0.018718
v -1.600238 -2.235530 0.027293
v -1.560810 -2.215114 0.027520
v -1.572721 -2.240114 0.002451
v -1.590127 -2.224497 0.027351
v -1.596075 -2.236981 0.014833
v -1.586373 -2.226371 0.015417
v -1.561915 -2.219292 0.015029
v -1.575655 -2.217003 0.027434
v -1.576184 -2.221095 0.015476
v -1.585975 -2.238664 0.005714
v -1.566287 -2.228469 0.005828
v -1.579262 -2.227555 0.008997
v -0.999240 -4.190114 0.030748
v -1.024384 -4.190114 0.055604
v -1.024240 -4.215114 0.030605
v -1.002652 -4.190114 0.043212
v -1.002580 -4.202598 0.030729
v -1.005893 -4.202069 0.042665
v -1.024364 -4.202598 0.052264
v -1.011881 -4.190114 0.052336
v -1.012391 -4.202069 0.049089
v -1.011757 -4.211774 0.030676
v -1.024312 -4.211774 0.043088
v -1.012354 -4.208530 0.042628
v -2.974208 -4.215114 0.019394
v -2.951071 -4.190114 0.044527
v -2.984779 -4.194698 0.019333
v -2.969551 -4.210936 0.031904
v -2.986382 -4.213225 0.019324
v -2.981266 -4.209134 0.031309
v -2.966337 -4.191565 0.041100
v -2.961058 -4.201759 0.041130
v -2.975287 -4.202673 0.037804
v -2.990263 -4.205731 0.019302
v -2.978710 -4.193247 0.031852
v -2.983998 -4.203857 0.031293
v -0.999240 -2.240114 0.030748
v -1.024240 -2.215114 0.030604
v -1.024384 -2.240114 0.055604
v -1.002580 -2.227631 0.030729
v -1.002652 -2.240114 0.043212
v -1.005893 -2.228159 0.042665
v -1.024312 -2.218454 0.043088
v -1.011757 -2.218454 0.030676
v -1.012354 -2.221698 0.042628
v -1.011881 -2.240114 0.052336
v -1.024364 -2.227631 0.052264
v -1.012391 -2.228159 0.049089
v -1.600238 -2.235530 0.027293
v -1.573008 -2.240114 0.052450
v -1.560810 -2.215114 0.027520
v -1.596218 -2.236981 0.039800
v -1.590127 -2.224497 0.027351
v -1.586510 -2.226371 0.039327
v -1.566536 -2.228469 0.049147
v -1.586224 -2.238663 0.049034
v -1.579473 -2.227555 0.045828
v -1.575655 -2.217003 0.027434
v -1.562058 -2.219292 0.039996
v -1.576321 -2.221095 0.039386
vn 0.9333 -0.2566 -0.2512
vn 0.6914 -0.6901 -0.2138
vn 0.2581 -0.9318 -0.2551
vn 0.2217 -0.6901 -0.6889
vn 0.2619 -0.2566 -0.9303
vn 0.6941 -0.2178 -0.6862
vn 0.5807 -0.5774 -0.5740
vn -0.1477 -0.9165 -0.3718
vn -0.7778 -0.4042 -0.4813
vn -0.8328 0.4066 -0.3757
vn -0.5918 0.2595 -0.7631
vn -0.2025 -0.1078 -0.9733
vn -0.1278 -0.6367 -0.7605
vn -0.5404 -0.2821 -0.7927
vn 0.9333 0.2566 -0.2512
vn 0.6941 0.2178 -0.6862
vn 0.2619 0.2566 -0.9303
vn 0.2217 0.6901 -0.6889
vn 0.2581 0.9318 -0.2551
vn 0.6914 0.6901 -0.2138
vn 0.5807 0.5774 -0.5740
vn -0.6957 0.6462 -0.3138
vn -0.4411 0.8549 -0.2730
vn -0.1234 0.9425 -0.3106
vn -0.1133 0.7299 -0.6741
vn -0.1889 0.3748 -0.9077
vn -0.5246 0.5169 -0.6765
vn -0.3795 0.7390 -0.5567
vn 0.9303 -0.2566 0.2619
vn 0.6862 -0.2178 0.6941
vn 0.2512 -0.2566 0.9333
vn 0.2138 -0.6901 0.6914
vn 0.2551 -0.9318 0.2581
vn 0.6889 -0.6901 0.2217
vn 0.5740 -0.5774 0.5807
vn -0.1519 -0.9165 0.3700
vn -0.1365 -0.6367 0.7590
vn -0.2137 -0.1078 0.9709
vn -0.6006 0.2595 0.7563
vn -0.8370 0.4066 0.3661
vn -0.7833 -0.4042 0.4724
vn -0.5495 -0.2821 0.7864
vn 0.9303 0.2566 0.2619
vn 0.6889 0.6901 0.2217
vn 0.2551 0.9318 0.2581
vn 0.2138 0.6901 0.6914
vn 0.2512 0.2566 0.9333
vn 0.6862 0.2178 0.6941
vn 0.5740 0.5774 0.5807
vn -0.6993 0.6462 0.3058
vn -0.5323 0.5169 0.6704
vn -0.1993 0.3748 0.9054
vn -0.1210 0.7299 0.6727
vn -0.1269 0.9425 0.3091
vn -0.4442 0.8549 0.2679
vn -0.3858 0.7390 0.5523
vn 0.9675 -0.0000 -0.2529
vn 0.7112 -0.0000 -0.7030
vn 0.2640 -0.0000 -0.9645
vn 0.0015 -0.9575 -0.2884
vn 0.0038 -0.7070 -0.7072
vn 0.0055 -0.2668 -0.9637
vn -0.7726 0.5473 -0.3218
vn -0.5734 0.4081 -0.7104
vn -0.2196 0.1591 -0.9625
vn 0.0009 0.9575 -0.2883
vn 0.0030 0.7072 -0.7070
vn 0.0053 0.2669 -0.9637
vn 0.2529 -0.0000 0.9675
vn 0.7030 -0.0000 0.7112
vn 0.9645 -0.0000 0.2640
vn -0.0056 -0.2668 0.9637
vn -0.0044 -0.7070 0.7072
vn -0.0019 -0.9575 0.2884
vn -0.2307 0.1591 0.9599
vn -0.5815 0.4081 0.7038
vn -0.7762 0.5473 0.3129
vn -0.0057 0.2669 0.9637
vn -0.0052 0.7072 0.7070
vn -0.0024 0.9575 0.2883
vn 0.9779 -0.2090 0.0056
vn 0.7504 -0.6610 0.0043
vn 0.1037 -0.9946 0.0006
vn -0.1687 -0.9857 -0.0010
vn -0.0814 -0.0463 -0.9956
vn -0.6887 0.7251 -0.0040
vn 0.1242 0.9923 0.0007
vn 0.7504 0.6610 0.0043
vn 0.9522 0.3053 0.0055
vn -0.1172 0.1490 -0.9819
vn -0.0116 0.0301 -0.9995
vn -0.0021 0.0740 -0.9973
vn 1.0000 -0.0000 0.0057
vn 0.0057 -0.0000 -1.0000
vn -0.0000 -1.0000 -0.0000
vn -0.6936 0.7203 -0.0040
vn -0.0000 1.0000 -0.0000
vn -0.0057 -0.0000 1.0000
vt 0.000000 0.012500
vt 0.000000 0.006258
vt 0.000000 0.006522
vt 0.000000 0.012500
vt 0.006258 0.000000
vt 0.006522 0.000000
vt 0.012500 0.000000
vt 0.013976 0.006258
vt 0.007696 0.006522
vt 0.014781 0.012500
vt 0.007740 0.012500
vt 0.987500 0.000000
vt 0.993587 0.000000
vt 0.990995 0.000000
vt 0.985135 0.000000
vt 1.000000 0.005237
vt 1.000000 0.007354
vt 1.000000 0.010208
vt 1.000000 0.012139
vt 0.991245 0.011775
vt 0.991963 0.006221
vt 0.983832 0.012500
vt 0.985004 0.006677
vt 0.000000 0.987500
vt 0.000000 0.987500
vt 0.000000 0.993478
vt 0.000000 0.993742
vt 0.017833 0.987500
vt 0.019481 0.993478
vt 0.037224 0.987500
vt 0.039152 0.993742
vt 0.042620 1.000000
vt 0.022239 1.000000
vt 0.042620 1.000000
vt 0.021338 1.000000
vt 1.000000 0.989792
vt 1.000000 0.995854
vt 1.000000 0.996097
vt 1.000000 0.990272
vt 0.982688 1.000000
vt 0.983707 1.000000
vt 0.957380 1.000000
vt 0.959385 1.000000
vt 0.958961 0.993323
vt 0.980184 0.993779
vt 0.960358 0.987500
vt 0.980319 0.988225
vt 0.000000 0.006258
vt 0.006258 0.000000
vt 0.993587 0.000000
vt 0.985004 0.006677
vt 0.991963 0.006221
vt 0.991245 0.011775
vt 1.000000 0.012139
vt 1.000000 0.007354
vt 1.000000 0.005237
vt 0.000000 0.987500
vt 0.000000 0.993478
vt 0.021338 1.000000
vt 0.042620 1.000000
vt 0.039152 0.993742
vt 0.019481 0.993478
vt 1.000000 0.990272
vt 1.000000 0.996098
vt 1.000000 0.995853
vt 0.980319 0.988225
vt 0.980184 0.993779
vt 0.958961 0.993323
vt 0.959386 1.000000
vt 0.983707 1.000000
vt 0.982688 1.000000
s 0
f 97/72/99 100/73/99 102/74/99 101/75/99
f 100/73/100 104/76/100 105/77/100 102/74/100
f 98/78/101 103/78/101 105/77/101 104/76/101
f 103/78/102 107/79/102 108/80/102 105/77/102
f 99/81/103 106/82/103 108/80/103 107/79/103
f 106/82/104 101/75/104 102/74/104 108/80/104
f 102/74/105 105/77/105 108/80/105
f 109/83/106 112/84/106 114/85/106 113/86/106
f 112/84/107 116/87/107 117/88/107 114/85/107
f 110/89/108 115/90/108 117/88/108 116/87/108
f 115/90/109 119/91/109 120/92/109 117/88/109
f 111/93/110 118/94/110 120/92/110 119/91/110
f 118/94/111 113/86/111 114/85/111 120/92/111
f 114/85/112 117/88/112 120/92/112
f 121/95/113 124/96/113 126/97/113 125/98/113
f 124/96/114 128/99/114 129/100/114 126/97/114
f 122/101/115 127/102/115 129/100/115 128/99/115
f 127/102/116 131/103/116 132/104/116 129/100/116
f 123/105/117 130/106/117 132/104/117 131/103/117
f 130/106/118 125/98/118 126/97/118 132/104/118
f 126/97/119 129/100/119 132/104/119
f 133/107/120 136/108/120 138/109/120 137/110/120
f 136/108/121 140/111/121 141/112/121 138/109/121
f 134/113/122 139/114/122 141/112/122 140/111/122
f 139/114/123 143/115/123 144/116/123 141/112/123
f 135/117/124 142/118/124 144/116/124 143/115/124
f 142/118/125 137/110/125 138/109/125 144/116/125
f 138/109/126 141/112/126 144/116/126
f 145/75/127 148/72/127 150/74/127 149/119/127
f 148/72/128 152/82/128 153/80/128 150/74/128
f 146/81/129 151/79/129 153/80/129 152/82/129
f 151/79/130 155/78/130 156/77/130 153/80/130
f 147/78/131 154/120/131 156/77/131 155/78/131
f 154/120/132 149/119/132 150/74/132 156/77/132
f 150/74/133 153/80/133 156/77/133
f 157/83/134 160/86/134 162/85/134 161/121/134
f 160/86/135 164/122/135 165/123/135 162/85/135
f 158/93/136 163/124/136 165/123/136 164/122/136
f 163/124/137 167/125/137 168/126/137 165/123/137
f 159/89/138 166/127/138 168/126/138 167/125/138
f 166/127/139 161/121/139 162/85/139 168/126/139
f 162/85/140 165/123/140 168/126/140
f 169/128/141 172/98/141 174/129/141 173/128/141
f 172/98/142 176/130/142 177/104/142 174/129/142
f 170/105/143 175/131/143 177/104/143 176/130/143
f 175/131/144 179/132/144 180/133/144 177/104/144
f 171/101/145 178/99/145 180/133/145 179/132/145
f 178/99/146 173/128/146 174/129/146 180/133/146
f 174/129/147 177/104/147 180/133/147
f 181/107/148 184/134/148 186/135/148 185/136/148
f 184/134/149 188/137/149 189/138/149 186/135/149
f 182/117/150 187/139/150 189/138/150 188/137/150
f 187/139/151 191/140/151 192/141/151 189/138/151
f 183/113/152 190/142/152 192/141/152 191/140/152
f 190/142/153 185/136/153 186/135/153 192/141/153
f 186/135/154 189/138/154 192/141/154
f 121/95/155 97/72/155 101/75/155 124/96/155
f 124/96/156 101/75/156 106/82/156 128/99/156
f 128/99/157 106/82/157 99/81/157 122/101/157
f 98/78/158 109/83/158 113/86/158 103/78/158
f 103/78/159 113/86/159 118/94/159 107/79/159
f 107/79/160 118/94/160 111/93/160 99/81/160
f 110/89/161 133/107/161 137/110/161 115/90/161
f 115/90/162 137/110/162 142/118/162 119/91/162
f 119/91/163 142/118/163 135/117/163 111/93/163
f 134/113/164 123/105/164 131/103/164 139/114/164
f 139/114/165 131/103/165 127/102/165 143/115/165
f 143/115/166 127/102/166 122/101/166 135/117/166
f 171/101/167 146/81/167 152/82/167 178/99/167
f 178/99/168 152/82/168 148/72/168 173/128/168
f 173/128/169 148/72/169 145/75/169 169/128/169
f 146/81/170 158/93/170 164/122/170 151/79/170
f 151/79/171 164/122/171 160/86/171 155/78/171
f 155/78/172 160/86/172 157/83/172 147/78/172
f 158/93/173 182/117/173 188/137/173 163/124/173
f 163/124/174 188/137/174 184/134/174 167/125/174
f 167/125/175 184/134/175 181/107/175 159/89/175
f 182/117/176 171/101/176 179/132/176 187/139/176
f 187/139/177 179/132/177 175/131/177 191/140/177
f 191/140/178 175/131/178 170/105/178 183/113/178
f 97/72/179 145/75/179 149/119/179 100/73/179
f 100/73/180 149/119/180 154/120/180 104/76/180
f 104/76/181 154/120/181 147/78/181 98/78/181
f 109/83/182 157/83/182 161/121/182 112/84/182
f 112/84/183 161/121/183 166/127/183 116/87/183
f 116/87/184 166/127/184 159/89/184 110/89/184
f 123/105/185 170/105/185 176/130/185 130/106/185
f 130/106/186 176/130/186 172/98/186 125/98/186
f 125/98/187 172/98/187 169/128/187 121/95/187
f 133/107/188 181/107/188 185/136/188 136/108/188
f 136/108/189 185/136/189 190/142/189 140/111/189
f 140/111/190 190/142/190 183/113/190 134/113/190
f 97/72/191 121/95/191 169/128/191 145/75/191
f 99/81/192 111/93/192 135/117/192 122/101/192
f 109/83/193 98/78/193 147/78/193 157/83/193
f 133/107/194 110/89/194 159/89/194 181/107/194
f 123/105/195 134/113/195 183/113/195 170/105/195
f 146/81/196 171/101/196 182/117/196 158/93/196
o Plane.003
v 0.004113 -3.979563 -1.005648
v 0.003707 -4.004563 -1.030644
v 0.028703 -3.979563 -1.031051
v 0.004059 -3.992047 -1.008987
v 0.016541 -3.979563 -1.009190
v 0.015960 -3.991518 -1.012425
v 0.016189 -4.001224 -1.030847
v 0.003910 -4.001224 -1.018162
v 0.015855 -3.997979 -1.018885
v 0.025567 -3.979563 -1.018514
v 0.025364 -3.992047 -1.030996
v 0.022314 -3.991518 -1.018990
v -0.027998 -4.004563 -2.980386
v -0.028170 -3.984147 -2.990957
v -0.002623 -3.979563 -2.957515
v -0.028196 -4.002674 -2.992560
v -0.015439 -4.000385 -2.975861
v -0.016158 -3.998583 -2.987570
v -0.015588 -3.982697 -2.985019
v -0.028259 -3.995180 -2.996440
v -0.016203 -3.993307 -2.990301
v -0.006125 -3.991209 -2.967466
v -0.006211 -3.981014 -2.972744
v -0.009601 -3.992122 -2.981659
v 0.004113 -2.029563 -1.005648
v 0.028704 -2.029563 -1.031051
v 0.003707 -2.004563 -1.030644
v 0.016541 -2.029563 -1.009190
v 0.004059 -2.017080 -1.008987
v 0.015960 -2.017608 -1.012425
v 0.025364 -2.017080 -1.030996
v 0.025567 -2.029563 -1.018514
v 0.022315 -2.017608 -1.018990
v 0.003910 -2.007903 -1.018162
v 0.016189 -2.007903 -1.030847
v 0.015855 -2.011147 -1.018885
v -0.005658 -2.024980 -1.606575
v -0.005017 -2.004563 -1.567152
v 0.019783 -2.029563 -1.579612
v -0.005494 -2.013947 -1.596466
v 0.006890 -2.026430 -1.602688
v 0.006520 -2.015820 -1.592975
v 0.007445 -2.008742 -1.568531
v -0.005259 -2.006453 -1.581995
v 0.006685 -2.010544 -1.582787
v 0.016229 -2.028113 -1.592791
v 0.016549 -2.017918 -1.573105
v 0.013094 -2.017004 -1.586007
v 0.004113 -3.979563 -1.005648
v -0.021290 -3.979563 -1.030238
v 0.003707 -4.004563 -1.030644
v -0.008423 -3.979563 -1.008784
v 0.004059 -3.992047 -1.008987
v -0.007948 -3.991518 -1.012036
v -0.017951 -3.992047 -1.030292
v -0.017748 -3.979563 -1.017810
v -0.014512 -3.991518 -1.018391
v 0.003910 -4.001224 -1.018162
v -0.008775 -4.001224 -1.030441
v -0.008053 -3.997979 -1.018496
v -0.027998 -4.004563 -2.980386
v -0.052616 -3.979563 -2.956702
v -0.028170 -3.984147 -2.990957
v -0.040403 -4.000385 -2.975455
v -0.028196 -4.002674 -2.992560
v -0.040066 -3.998583 -2.987181
v -0.049525 -3.981014 -2.972040
v -0.049440 -3.991209 -2.966762
v -0.046427 -3.992122 -2.981061
v -0.028259 -3.995180 -2.996440
v -0.040552 -3.982697 -2.984613
v -0.040110 -3.993307 -2.989913
v 0.004113 -2.029563 -1.005648
v 0.003707 -2.004563 -1.030644
v -0.021290 -2.029563 -1.030238
v 0.004059 -2.017080 -1.008987
v -0.008423 -2.029563 -1.008784
v -0.007947 -2.017608 -1.012036
v -0.008775 -2.007903 -1.030441
v 0.003910 -2.007903 -1.018162
v -0.008053 -2.011147 -1.018496
v -0.017747 -2.029563 -1.017810
v -0.017950 -2.017080 -1.030292
v -0.014512 -2.017608 -1.018391
v -0.005658 -2.024980 -1.606575
v -0.030210 -2.029563 -1.578799
v -0.005017 -2.004563 -1.567152
v -0.018074 -2.026430 -1.602282
v -0.005494 -2.013947 -1.596466
v -0.017388 -2.015820 -1.592586
v -0.026766 -2.017918 -1.572401
v -0.027086 -2.028113 -1.592086
v -0.023732 -2.017004 -1.585408
v -0.005259 -2.006453 -1.581995
v -0.017518 -2.008741 -1.568125
v -0.017222 -2.010544 -1.582398
vn 0.2717 -0.2566 0.9275
vn 0.2290 -0.6901 0.6865
vn 0.2607 -0.9318 0.2524
vn 0.6936 -0.6901 0.2065
vn 0.9359 -0.2566 0.2414
vn 0.7013 -0.2178 0.6788
vn 0.5867 -0.5774 0.5679
vn 0.3684 -0.9165 -0.1558
vn 0.4641 -0.4042 -0.7882
vn 0.3573 0.4066 -0.8408
vn 0.7499 0.2595 -0.6085
vn 0.9686 -0.1078 -0.2239
vn 0.7575 -0.6367 -0.1445
vn 0.7806 -0.2821 -0.5577
vn 0.2717 0.2566 0.9275
vn 0.7013 0.2178 0.6788
vn 0.9359 0.2566 0.2414
vn 0.6936 0.6901 0.2065
vn 0.2607 0.9318 0.2524
vn 0.2290 0.6901 0.6865
vn 0.5867 0.5774 0.5679
vn 0.2985 0.6462 -0.7024
vn 0.2632 0.8549 -0.4470
vn 0.3078 0.9425 -0.1302
vn 0.6714 0.7299 -0.1281
vn 0.9033 0.3748 -0.2088
vn 0.6647 0.5169 -0.5393
vn 0.5482 0.7390 -0.3916
vn -0.2414 -0.2566 0.9359
vn -0.6788 -0.2178 0.7013
vn -0.9275 -0.2566 0.2717
vn -0.6865 -0.6901 0.2290
vn -0.2524 -0.9318 0.2607
vn -0.2065 -0.6901 0.6936
vn -0.5679 -0.5774 0.5867
vn -0.3733 -0.9165 -0.1438
vn -0.7618 -0.6367 -0.1198
vn -0.9754 -0.1078 -0.1923
vn -0.7693 0.2595 -0.5838
vn -0.3844 0.4066 -0.8288
vn -0.4895 -0.4042 -0.7727
vn -0.7983 -0.2821 -0.5320
vn -0.2414 0.2566 0.9359
vn -0.2065 0.6901 0.6936
vn -0.2524 0.9318 0.2607
vn -0.6865 0.6901 0.2290
vn -0.9275 0.2566 0.2717
vn -0.6788 0.2178 0.7013
vn -0.5679 0.5774 0.5867
vn -0.3211 0.6462 -0.6924
vn -0.6819 0.5169 -0.5174
vn -0.9096 0.3748 -0.1793
vn -0.6752 0.7299 -0.1062
vn -0.3118 0.9425 -0.1201
vn -0.2776 0.8549 -0.4382
vn -0.5606 0.7390 -0.3736
vn 0.2741 -0.0000 0.9617
vn 0.7185 -0.0000 0.6955
vn 0.9701 -0.0000 0.2427
vn 0.2883 -0.9575 -0.0049
vn 0.7071 -0.7070 -0.0118
vn 0.9636 -0.2668 -0.0157
vn 0.3048 0.5473 -0.7795
vn 0.6976 0.4081 -0.5889
vn 0.9575 0.1591 -0.2407
vn 0.2883 0.9575 -0.0054
vn 0.7069 0.7072 -0.0126
vn 0.9636 0.2669 -0.0159
vn -0.9617 -0.0000 0.2741
vn -0.6955 -0.0000 0.7185
vn -0.2427 -0.0000 0.9701
vn -0.9636 -0.2668 0.0156
vn -0.7071 -0.7070 0.0112
vn -0.2883 -0.9575 0.0045
vn -0.9648 0.1591 -0.2095
vn -0.7164 0.4081 -0.5659
vn -0.3299 0.5473 -0.7692
vn -0.9636 0.2669 0.0155
vn -0.7069 0.7072 0.0104
vn -0.2883 0.9575 0.0039
vn 0.0159 -0.2090 0.9778
vn 0.0122 -0.6610 0.7503
vn 0.0017 -0.9946 0.1037
vn -0.0027 -0.9857 -0.1686
vn 0.9936 -0.0463 -0.1032
vn -0.0112 0.7251 -0.6886
vn 0.0020 0.9923 0.1242
vn 0.0122 0.6610 0.7503
vn 0.0155 0.3053 0.9521
vn 0.9791 0.1490 -0.1387
vn 0.9990 0.0301 -0.0336
vn 0.9970 0.0740 -0.0240
vn 0.0163 -0.0000 0.9999
vn 0.9999 -0.0000 -0.0163
vn -0.0000 -1.0000 -0.0000
vn -0.0113 0.7203 -0.6936
vn -0.0000 1.0000 -0.0000
vn -0.9999 -0.0000 0.0163
vt 0.000000 0.012500
vt 0.000000 0.006258
vt 0.000000 0.006522
vt 0.000000 0.012500
vt 0.006258 0.000000
vt 0.006522 0.000000
vt 0.012500 0.000000
vt 0.013976 0.006258
vt 0.007696 0.006522
vt 0.014781 0.012500
vt 0.007740 0.012500
vt 0.987500 0.000000
vt 0.993587 0.000000
vt 0.990995 0.000000
vt 0.985135 0.000000
vt 1.000000 0.005237
vt 1.000000 0.007354
vt 1.000000 0.010208
vt 1.000000 0.012139
vt 0.991245 0.011775
vt 0.991963 0.006221
vt 0.983832 0.012500
vt 0.985004 0.006677
vt 0.000000 0.987500
vt 0.000000 0.987500
vt 0.000000 0.993478
vt 0.000000 0.993742
vt 0.017833 0.987500
vt 0.019481 0.993478
vt 0.037224 0.987500
vt 0.039152 0.993742
vt 0.042620 1.000000
vt 0.022239 1.000000
vt 0.042620 1.000000
vt 0.021338 1.000000
vt 1.000000 0.989792
vt 1.000000 0.995854
vt 1.000000 0.996097
vt 1.000000 0.990272
vt 0.982688 1.000000
vt 0.983707 1.000000
vt 0.957380 1.000000
vt 0.959385 1.000000
vt 0.958961 0.993323
vt 0.980184 0.993779
vt 0.960358 0.987500
vt 0.980319 0.988225
vt 0.000000 0.006258
vt 0.006258 0.000000
vt 0.993587 0.000000
vt 0.985004 0.006677
vt 0.991963 0.006221
vt 0.991245 0.011775
vt 1.000000 0.012139
vt 1.000000 0.007354
vt 1.000000 0.005237
vt 0.000000 0.987500
vt 0.000000 0.993478
vt 0.021338 1.000000
vt 0.042620 1.000000
vt 0.039152 0.993742
vt 0.019481 0.993478
vt 1.000000 0.990272
vt 1.000000 0.996098
vt 1.000000 0.995853
vt 0.980319 0.988225
vt 0.980184 0.993779
vt 0.958961 0.993323
vt 0.959386 1.000000
vt 0.983707 1.000000
vt 0.982688 1.000000
s 0
f 193/143/197 196/144/197 198/145/197 197/146/197
f 196/144/198 200/147/198 201/148/198 198/145/198
f 194/149/199 199/149/199 201/148/199 200/147/199
f 199/149/200 203/150/200 204/151/200 201/148/200
f 195/152/201 202/153/201 204/151/201 203/150/201
f 202/153/202 197/146/202 198/145/202 204/151/202
f 198/145/203 201/148/203 204/151/203
f 205/154/204 208/155/204 210/156/204 209/157/204
f 208/155/205 212/158/205 213/159/205 210/156/205
f 206/160/206 211/161/206 213/159/206 212/158/206
f 211/161/207 215/162/207 216/163/207 213/159/207
f 207/164/208 214/165/208 216/163/208 215/162/208
f 214/165/209 209/157/209 210/156/209 216/163/209
f 210/156/210 213/159/210 216/163/210
f 217/166/211 220/167/211 222/168/211 221/169/211
f 220/167/212 224/170/212 225/171/212 222/168/212
f 218/172/213 223/173/213 225/171/213 224/170/213
f 223/173/214 227/174/214 228/175/214 225/171/214
f 219/176/215 226/177/215 228/175/215 227/174/215
f 226/177/216 221/169/216 222/168/216 228/175/216
f 222/168/217 225/171/217 228/175/217
f 229/178/218 232/179/218 234/180/218 233/181/218
f 232/179/219 236/182/219 237/183/219 234/180/219
f 230/184/220 235/185/220 237/183/220 236/182/220
f 235/185/221 239/186/221 240/187/221 237/183/221
f 231/188/222 238/189/222 240/187/222 239/186/222
f 238/189/223 233/181/223 234/180/223 240/187/223
f 234/180/224 237/183/224 240/187/224
f 241/146/225 244/143/225 246/145/225 245/190/225
f 244/143/226 248/153/226 249/151/226 246/145/226
f 242/152/227 247/150/227 249/151/227 248/153/227
f 247/150/228 251/149/228 252/148/228 249/151/228
f 243/149/229 250/191/229 252/148/229 251/149/229
f 250/191/230 245/190/230 246/145/230 252/148/230
f 246/145/231 249/151/231 252/148/231
f 253/154/232 256/157/232 258/156/232 257/192/232
f 256/157/233 260/193/233 261/194/233 258/156/233
f 254/164/234 259/195/234 261/194/234 260/193/234
f 259/195/235 263/196/235 264/197/235 261/194/235
f 255/160/236 262/198/236 264/197/236 263/196/236
f 262/198/237 257/192/237 258/156/237 264/197/237
f 258/156/238 261/194/238 264/197/238
f 265/199/239 268/169/239 270/200/239 269/199/239
f 268/169/240 272/201/240 273/175/240 270/200/240
f 266/176/241 271/202/241 273/175/241 272/201/241
f 271/202/242 275/203/242 276/204/242 273/175/242
f 267/172/243 274/170/243 276/204/243 275/203/243
f 274/170/244 269/199/244 270/200/244 276/204/244
f 270/200/245 273/175/245 276/204/245
f 277/178/246 280/205/246 282/206/246 281/207/246
f 280/205/247 284/208/247 285/209/247 282/206/247
f 278/188/248 283/210/248 285/209/248 284/208/248
f 283/210/249 287/211/249 288/212/249 285/209/249
f 279/184/250 286/213/250 288/212/250 287/211/250
f 286/213/251 281/207/251 282/206/251 288/212/251
f 282/206/252 285/209/252 288/212/252
f 217/166/253 193/143/253 197/146/253 220/167/253
f 220/167/254 197/146/254 202/153/254 224/170/254
f 224/170/255 202/153/255 195/152/255 218/172/255
f 194/149/256 205/154/256 209/157/256 199/149/256
f 199/149/257 209/157/257 214/165/257 203/150/257
f 203/150/258 214/165/258 207/164/258 195/152/258
f 206/160/259 229/178/259 233/181/259 211/161/259
f 211/161/260 233/181/260 238/189/260 215/162/260
f 215/162/261 238/189/261 231/188/261 207/164/261
f 230/184/262 219/176/262 227/174/262 235/185/262
f 235/185/263 227/174/263 223/173/263 239/186/263
f 239/186/264 223/173/264 218/172/264 231/188/264
f 267/172/265 242/152/265 248/153/265 274/170/265
f 274/170/266 248/153/266 244/143/266 269/199/266
f 269/199/267 244/143/267 241/146/267 265/199/267
f 242/152/268 254/164/268 260/193/268 247/150/268
f 247/150/269 260/193/269 256/157/269 251/149/269
f 251/149/270 256/157/270 253/154/270 243/149/270
f 254/164/271 278/188/271 284/208/271 259/195/271
f 259/195/272 284/208/272 280/205/272 263/196/272
f 263/196/273 280/205/273 277/178/273 255/160/273
f 278/188/274 267/172/274 275/203/274 283/210/274
f 283/210/275 275/203/275 271/202/275 287/211/275
f 287/211/276 271/202/276 266/176/276 279/184/276
f 193/143/277 241/146/277 245/190/277 196/144/277
f 196/144/278 245/190/278 250/191/278 200/147/278
f 200/147/279 250/191/279 243/149/279 194/149/279
f 205/154/280 253/154/280 257/192/280 208/155/280
f 208/155/281 257/192/281 262/198/281 212/158/281
f 212/158/282 262/198/282 255/160/282 206/160/282
f 219/176/283 266/176/283 272/201/283 226/177/283
f 226/177/284 272/201/284 268/169/284 221/169/284
f 221/169/285 268/169/285 265/199/285 217/166/285
f 229/178/286 277/178/286 281/207/286 232/179/286
f 232/179/287 281/207/287 286/213/287 236/182/287
f 236/182/288 286/213/288 279/184/288 230/184/288
f 193/143/289 217/166/289 265/199/289 241/146/289
f 195/152/290 207/164/290 231/188/290 218/172/290
f 205/154/291 194/149/291 243/149/291 253/154/291
f 229/178/292 206/160/292 255/160/292 277/178/292
f 219/176/293 230/184/293 279/184/293 266/176/293
f 242/152/294 267/172/294 278/188/294 254/164/294
o Plane.004
v 0.021589 -3.979563 1.005810
v 0.021995 -4.004563 1.030807
v -0.003002 -3.979563 1.031214
v 0.021643 -3.992047 1.009150
v 0.009161 -3.979563 1.009353
v 0.009742 -3.991518 1.012588
v 0.009513 -4.001223 1.031010
v 0.021792 -4.001223 1.018325
v 0.009847 -3.997979 1.019048
v 0.000135 -3.979563 1.018677
v 0.000338 -3.992047 1.031159
v 0.003387 -3.991518 1.019153
v 0.053700 -4.004563 2.980549
v 0.053872 -3.984147 2.991119
v 0.028325 -3.979563 2.957678
v 0.053898 -4.002674 2.992723
v 0.041141 -4.000385 2.976024
v 0.041860 -3.998582 2.987732
v 0.041290 -3.982696 2.985182
v 0.053961 -3.995180 2.996603
v 0.041905 -3.993306 2.990464
v 0.031827 -3.991208 2.967629
v 0.031913 -3.981014 2.972907
v 0.035303 -3.992122 2.981822
v 0.021589 -2.029563 1.005810
v -0.003002 -2.029563 1.031214
v 0.021995 -2.004563 1.030807
v 0.009161 -2.029563 1.009353
v 0.021643 -2.017079 1.009150
v 0.009742 -2.017608 1.012588
v 0.000338 -2.017079 1.031159
v 0.000135 -2.029563 1.018677
v 0.003387 -2.017608 1.019153
v 0.021792 -2.007903 1.018325
v 0.009513 -2.007903 1.031010
v 0.009847 -2.011147 1.019048
v 0.031360 -2.024979 1.606738
v 0.030719 -2.004563 1.567315
v 0.005919 -2.029563 1.579775
v 0.031196 -2.013947 1.596629
v 0.018812 -2.026430 1.602851
v 0.019182 -2.015820 1.593138
v 0.018257 -2.008741 1.568694
v 0.030961 -2.006453 1.582158
v 0.019017 -2.010544 1.582950
v 0.009473 -2.028112 1.592953
v 0.009153 -2.017918 1.573268
v 0.012608 -2.017004 1.586170
v 0.021589 -3.979563 1.005810
v 0.046992 -3.979563 1.030401
v 0.021995 -4.004563 1.030807
v 0.034125 -3.979563 1.008947
v 0.021643 -3.992047 1.009150
v 0.033649 -3.991518 1.012199
v 0.043652 -3.992047 1.030455
v 0.043449 -3.979563 1.017973
v 0.040214 -3.991518 1.018554
v 0.021792 -4.001223 1.018325
v 0.034477 -4.001223 1.030604
v 0.033755 -3.997979 1.018659
v 0.053700 -4.004563 2.980549
v 0.078318 -3.979563 2.956865
v 0.053872 -3.984147 2.991119
v 0.066105 -4.000385 2.975618
v 0.053898 -4.002674 2.992723
v 0.065768 -3.998583 2.987344
v 0.075228 -3.981014 2.972203
v 0.075142 -3.991209 2.966924
v 0.072130 -3.992122 2.981223
v 0.053961 -3.995180 2.996603
v 0.066254 -3.982696 2.984776
v 0.065812 -3.993307 2.990075
v 0.021589 -2.029563 1.005810
v 0.021995 -2.004563 1.030807
v 0.046992 -2.029563 1.030401
v 0.021643 -2.017079 1.009150
v 0.034125 -2.029563 1.008947
v 0.033649 -2.017608 1.012199
v 0.034477 -2.007903 1.030604
v 0.021792 -2.007903 1.018325
v 0.033754 -2.011147 1.018659
v 0.043449 -2.029563 1.017973
v 0.043652 -2.017079 1.030455
v 0.040214 -2.017608 1.018554
v 0.031360 -2.024979 1.606738
v 0.055912 -2.029563 1.578962
v 0.030719 -2.004563 1.567315
v 0.043776 -2.026430 1.602445
v 0.031196 -2.013946 1.596629
v 0.043090 -2.015820 1.592749
v 0.052468 -2.017918 1.572563
v 0.052788 -2.028112 1.592249
v 0.049434 -2.017004 1.585571
v 0.030961 -2.006452 1.582158
v 0.043220 -2.008741 1.568288
v 0.042924 -2.010544 1.582561
vn -0.2717 -0.2566 -0.9275
vn -0.2290 -0.6901 -0.6865
vn -0.2607 -0.9318 -0.2524
vn -0.6936 -0.6901 -0.2065
vn -0.9359 -0.2566 -0.2414
vn -0.7013 -0.2178 -0.6788
vn -0.5867 -0.5774 -0.5679
vn -0.3684 -0.9165 0.1558
vn -0.4641 -0.4042 0.7882
vn -0.3573 0.4066 0.8408
vn -0.7499 0.2595 0.6085
vn -0.9686 -0.1078 0.2239
vn -0.7575 -0.6367 0.1445
vn -0.7806 -0.2821 0.5577
vn -0.2717 0.2566 -0.9275
vn -0.7013 0.2178 -0.6788
vn -0.9359 0.2566 -0.2414
vn -0.6936 0.6901 -0.2065
vn -0.2607 0.9318 -0.2524
vn -0.2290 0.6901 -0.6865
vn -0.5867 0.5774 -0.5679
vn -0.2985 0.6462 0.7024
vn -0.2632 0.8549 0.4470
vn -0.3078 0.9425 0.1302
vn -0.6714 0.7299 0.1281
vn -0.9033 0.3748 0.2088
vn -0.6647 0.5169 0.5393
vn -0.5482 0.7390 0.3916
vn 0.2414 -0.2566 -0.9359
vn 0.6788 -0.2178 -0.7013
vn 0.9275 -0.2566 -0.2717
vn 0.6865 -0.6901 -0.2290
vn 0.2524 -0.9318 -0.2607
vn 0.2065 -0.6901 -0.6936
vn 0.5679 -0.5774 -0.5867
vn 0.3733 -0.9165 0.1438
vn 0.7618 -0.6367 0.1198
vn 0.9754 -0.1078 0.1923
vn 0.7693 0.2595 0.5838
vn 0.3844 0.4066 0.8288
vn 0.4895 -0.4042 0.7727
vn 0.7983 -0.2821 0.5320
vn 0.2414 0.2566 -0.9359
vn 0.2065 0.6901 -0.6936
vn 0.2524 0.9318 -0.2607
vn 0.6865 0.6901 -0.2290
vn 0.9275 0.2566 -0.2717
vn 0.6788 0.2178 -0.7013
vn 0.5679 0.5774 -0.5867
vn 0.3211 0.6462 0.6924
vn 0.6819 0.5169 0.5174
vn 0.9096 0.3748 0.1793
vn 0.6752 0.7299 0.1062
vn 0.3118 0.9425 0.1201
vn 0.2776 0.8549 0.4382
vn 0.5606 0.7390 0.3736
vn -0.2741 -0.0000 -0.9617
vn -0.7185 -0.0000 -0.6955
vn -0.9701 -0.0000 -0.2427
vn -0.2883 -0.9575 0.0049
vn -0.7071 -0.7070 0.0118
vn -0.9636 -0.2668 0.0157
vn -0.3048 0.5473 0.7795
vn -0.6976 0.4081 0.5889
vn -0.9575 0.1591 0.2407
vn -0.2883 0.9575 0.0054
vn -0.7069 0.7072 0.0126
vn -0.9636 0.2669 0.0159
vn 0.9617 -0.0000 -0.2741
vn 0.6955 -0.0000 -0.7185
vn 0.2427 -0.0000 -0.9701
vn 0.9636 -0.2668 -0.0156
vn 0.7071 -0.7070 -0.0112
vn 0.2883 -0.9575 -0.0045
vn 0.9648 0.1591 0.2095
vn 0.7164 0.4081 0.5659
vn 0.3299 0.5473 0.7692
vn 0.9636 0.2669 -0.0155
vn 0.7069 0.7072 -0.0104
vn 0.2883 0.9575 -0.0039
vn -0.0159 -0.2090 -0.9778
vn -0.0122 -0.6610 -0.7503
vn -0.0017 -0.9946 -0.1037
vn 0.0027 -0.9857 0.1686
vn -0.9936 -0.0463 0.1032
vn 0.0112 0.7251 0.6886
vn -0.0020 0.9923 -0.1242
vn -0.0122 0.6610 -0.7503
vn -0.0155 0.3053 -0.9521
vn -0.9791 0.1490 0.1387
vn -0.9990 0.0301 0.0336
vn -0.9970 0.0740 0.0240
vn -0.0163 -0.0000 -0.9999
vn -0.9999 -0.0000 0.0163
vn -0.0000 -1.0000 -0.0000
vn 0.0113 0.7203 0.6936
vn -0.0000 1.0000 -0.0000
vn 0.9999 -0.0000 -0.0163
vt 0.000000 0.012500
vt 0.000000 0.006258
vt 0.000000 0.006522
vt 0.000000 0.012500
vt 0.006258 0.000000
vt 0.006522 0.000000
vt 0.012500 0.000000
vt 0.013976 0.006258
vt 0.007696 0.006522
vt 0.014781 0.012500
vt 0.007740 0.012500
vt 0.987500 0.000000
vt 0.993587 0.000000
vt 0.990995 0.000000
vt 0.985135 0.000000
vt 1.000000 0.005237
vt 1.000000 0.007354
vt 1.000000 0.010208
vt 1.000000 0.012139
vt 0.991245 0.011775
vt 0.991963 0.006221
vt 0.983832 0.012500
vt 0.985004 0.006677
vt 0.000000 0.987500
vt 0.000000 0.987500
vt 0.000000 0.993478
vt 0.000000 0.993742
vt 0.017833 0.987500
vt 0.019481 0.993478
vt 0.037224 0.987500
vt 0.039152 0.993742
vt 0.042620 1.000000
vt 0.022239 1.000000
vt 0.042620 1.000000
vt 0.021338 1.000000
vt 1.000000 0.989792
vt 1.000000 0.995854
vt 1.000000 0.996097
vt 1.000000 0.990272
vt 0.982688 1.000000
vt 0.983707 1.000000
vt 0.957380 1.000000
vt 0.959385 1.000000
vt 0.958961 0.993323
vt 0.980184 0.993779
vt 0.960358 0.987500
vt 0.980319 0.988225
vt 0.000000 0.006258
vt 0.006258 0.000000
vt 0.993587 0.000000
vt 0.985004 0.006677
vt 0.991963 0.006221
vt 0.991245 0.011775
vt 1.000000 0.012139
vt 1.000000 0.007354
vt 1.000000 0.005237
vt 0.000000 0.987500
vt 0.000000 0.993478
vt 0.021338 1.000000
vt 0.042620 1.000000
vt 0.039152 0.993742
vt 0.019481 0.993478
vt 1.000000 0.990272
vt 1.000000 0.996098
vt 1.000000 0.995853
vt 0.980319 0.988225
vt 0.980184 0.993779
vt 0.958961 0.993323
vt 0.959386 1.000000
vt 0.983707 1.000000
vt 0.982688 1.000000
s 0
f 289/214/295 292/215/295 294/216/295 293/217/295
f 292/215/296 296/218/296 297/219/296 294/216/296
f 290/220/297 295/220/297 297/219/297 296/218/297
f 295/220/298 299/221/298 300/222/298 297/219/298
f 291/223/299 298/224/299 300/222/299 299/221/299
f 298/224/300 293/217/300 294/216/300 300/222/300
f 294/216/301 297/219/301 300/222/301
f 301/225/302 304/226/302 306/227/302 305/228/302
f 304/226/303 308/229/303 309/230/303 306/227/303
f 302/231/304 307/232/304 309/230/304 308/229/304
f 307/232/305 311/233/305 312/234/305 309/230/305
f 303/235/306 310/236/306 312/234/306 311/233/306
f 310/236/307 305/228/307 306/227/307 312/234/307
f 306/227/308 309/230/308 312/234/308
f 313/237/309 316/238/309 318/239/309 317/240/309
f 316/238/310 320/241/310 321/242/310 318/239/310
f 314/243/311 319/244/311 321/242/311 320/241/311
f 319/244/312 323/245/312 324/246/312 321/242/312
f 315/247/313 322/248/313 324/246/313 323/245/313
f 322/248/314 317/240/314 318/239/314 324/246/314
f 318/239/315 321/242/315 324/246/315
f 325/249/316 328/250/316 330/251/316 329/252/316
f 328/250/317 332/253/317 333/254/317 330/251/317
f 326/255/318 331/256/318 333/254/318 332/253/318
f 331/256/319 335/257/319 336/258/319 333/254/319
f 327/259/320 334/260/320 336/258/320 335/257/320
f 334/260/321 329/252/321 330/251/321 336/258/321
f 330/251/322 333/254/322 336/258/322
f 337/217/323 340/214/323 342/216/323 341/261/323
f 340/214/324 344/224/324 345/222/324 342/216/324
f 338/223/325 343/221/325 345/222/325 344/224/325
f 343/221/326 347/220/326 348/219/326 345/222/326
f 339/220/327 346/262/327 348/219/327 347/220/327
f 346/262/328 341/261/328 342/216/328 348/219/328
f 342/216/329 345/222/329 348/219/329
f 349/225/330 352/228/330 354/227/330 353/263/330
f 352/228/331 356/264/331 357/265/331 354/227/331
f 350/235/332 355/266/332 357/265/332 356/264/332
f 355/266/333 359/267/333 360/268/333 357/265/333
f 351/231/334 358/269/334 360/268/334 359/267/334
f 358/269/335 353/263/335 354/227/335 360/268/335
f 354/227/336 357/265/336 360/268/336
f 361/270/337 364/240/337 366/271/337 365/270/337
f 364/240/338 368/272/338 369/246/338 366/271/338
f 362/247/339 367/273/339 369/246/339 368/272/339
f 367/273/340 371/274/340 372/275/340 369/246/340
f 363/243/341 370/241/341 372/275/341 371/274/341
f 370/241/342 365/270/342 366/271/342 372/275/342
f 366/271/343 369/246/343 372/275/343
f 373/249/344 376/276/344 378/277/344 377/278/344
f 376/276/345 380/279/345 381/280/345 378/277/345
f 374/259/346 379/281/346 381/280/346 380/279/346
f 379/281/347 383/282/347 384/283/347 381/280/347
f 375/255/348 382/284/348 384/283/348 383/282/348
f 382/284/349 377/278/349 378/277/349 384/283/349
f 378/277/350 381/280/350 384/283/350
f 313/237/351 289/214/351 293/217/351 316/238/351
f 316/238/352 293/217/352 298/224/352 320/241/352
f 320/241/353 298/224/353 291/223/353 314/243/353
f 290/220/354 301/225/354 305/228/354 295/220/354
f 295/220/355 305/228/355 310/236/355 299/221/355
f 299/221/356 310/236/356 303/235/356 291/223/356
f 302/231/357 325/249/357 329/252/357 307/232/357
f 307/232/358 329/252/358 334/260/358 311/233/358
f 311/233/359 334/260/359 327/259/359 303/235/359
f 326/255/360 315/247/360 323/245/360 331/256/360
f 331/256/361 323/245/361 319/244/361 335/257/361
f 335/257/362 319/244/362 314/243/362 327/259/362
f 363/243/363 338/223/363 344/224/363 370/241/363
f 370/241/364 344/224/364 340/214/364 365/270/364
f 365/270/365 340/214/365 337/217/365 361/270/365
f 338/223/366 350/235/366 356/264/366 343/221/366
f 343/221/367 356/264/367 352/228/367 347/220/367
f 347/220/368 352/228/368 349/225/368 339/220/368
f 350/235/369 374/259/369 380/279/369 355/266/369
f 355/266/370 380/279/370 376/276/370 359/267/370
f 359/267/371 376/276/371 373/249/371 351/231/371
f 374/259/372 363/243/372 371/274/372 379/281/372
f 379/281/373 371/274/373 367/273/373 383/282/373
f 383/282/374 367/273/374 362/247/374 375/255/374
f 289/214/375 337/217/375 341/261/375 292/215/375
f 292/215/376 341/261/376 346/262/376 296/218/376
f 296/218/377 346/262/377 339/220/377 290/220/377
f 301/225/378 349/225/378 353/263/378 304/226/378
f 304/226/379 353/263/379 358/269/379 308/229/379
f 308/229/380 358/269/380 351/231/380 302/231/380
f 315/247/381 362/247/381 368/272/381 322/248/381
f 322/248/382 368/272/382 364/240/382 317/240/382
f 317/240/383 364/240/383 361/270/383 313/237/383
f 325/249/384 373/249/384 377/278/384 328/250/384
f 328/250/385 377/278/385 382/284/385 332/253/385
f 332/253/386 382/284/386 375/255/386 326/255/386
f 289/214/387 313/237/387 361/270/387 337/217/387
f 291/223/388 303/235/388 327/259/388 314/243/388
f 301/225/389 290/220/389 339/220/389 349/225/389
f 325/249/390 302/231/390 351/231/390 373/249/390
f 315/247/391 326/255/391 375/255/391 362/247/391
f 338/223/392 363/243/392 374/259/392 350/235/392
